<svg xmlns="http://www.w3.org/2000/svg" width="30" height="30" viewBox="0 0 30 30">
  <path fill="#0C2340" d="M14.5540578,9.2366349 C14.9756644,8.87989085 15.6066423,8.93247234 15.9633864,9.35407894 C16.3201304,9.77568555 16.2675489,10.4066634 15.8459423,10.7634075 L15.8459423,10.7634075 L11.784,14.199 L21,14.2 C21.5522847,14.2 22,14.6477153 22,15.2 C22,15.7522847 21.5522847,16.2 21,16.2 L11.642,16.199 L15.8519528,19.8186847 C16.2385145,20.151051 16.3088046,20.7145928 16.0341313,21.1287029 L15.9582597,21.228897 C15.5981961,21.6476722 14.9668226,21.6952674 14.5480473,21.3352039 L14.5480473,21.3352039 L8.34804734,16.0044346 C7.88156469,15.6033522 7.88442125,14.8801735 8.35405783,14.4827887 L8.35405783,14.4827887 Z"/>
</svg>
