<svg xmlns="http://www.w3.org/2000/svg" width="30" height="30" viewBox="0 0 30 30">
  <path fill="#003C95" fill-rule="evenodd" d="M6.55405783,0.236634901 C6.97566444,-0.120109148 7.60664231,-0.0675276589 7.96338636,0.354078945 C8.32013041,0.775685548 8.26754892,1.40666342 7.84594231,1.76340747 L7.84594231,1.76340747 L3.784,5.199 L13,5.2 C13.5522847,5.2 14,5.64771525 14,6.2 C14,6.75228475 13.5522847,7.2 13,7.2 L3.642,7.199 L7.85195281,10.8186847 C8.23851455,11.151051 8.30880456,11.7145928 8.03413133,12.1287029 L7.95825968,12.228897 C7.59819612,12.6476722 6.96682255,12.6952674 6.54804734,12.3352039 L6.54804734,12.3352039 L0.348047336,7.00443464 C-0.118435306,6.60335217 -0.115578753,5.88017355 0.354057831,5.48278875 L0.354057831,5.48278875 Z" transform="matrix(-1 0 0 1 22 9)"/>
</svg>
