<svg xmlns="http://www.w3.org/2000/svg" width="30" height="30" viewBox="0 0 30 30">
  <path fill="#0C2340" d="M27,3 L25.9317556,4.70680619 C25.8905252,4.77268289 25.812027,4.90008556 25.701597,5.08249843 C25.5168697,5.38763865 25.3108551,5.73479769 25.0888933,6.1174467 C24.4545687,7.21098461 23.8202298,8.36857636 23.228697,9.5376148 C22.7771973,10.4299078 22.3686745,11.2940936 22.0134156,12.1172735 C21.5807529,13.1198076 21.2346992,14.0440069 20.9881949,14.8722899 C20.7443398,15.6918161 20.5652964,16.6062499 20.4460655,17.5987943 C20.205615,19.6004386 20.2194291,21.7476024 20.387728,23.7745104 C20.4144432,24.0962545 20.4430312,24.3861874 20.4715602,24.639352 C20.4842869,24.7522874 20.4948086,24.8390094 20.5023087,24.8974318 L20.5087713,24.9463439 L20.7905126,27 L19.516239,25.343245 C19.4257578,25.2256054 19.2779967,25.0085769 19.0924406,24.6943172 C18.7889757,24.1803661 18.4869135,23.5737125 18.2058719,22.8765839 C17.5324996,21.2062725 17.0837288,19.2836005 16.962093,17.1218494 C16.8689011,15.4628706 17.1357678,13.7080626 17.636565,11.9759858 C17.7321878,11.6452609 17.8321686,11.3307603 17.933829,11.0352068 L18.0359501,10.7460699 L12.2603211,10.7460699 L27,3 Z M23.9944709,5.80875293 L16.6592409,9.66359992 L19.6858269,9.66359992 L19.3501615,10.4200294 C19.3121949,10.5055878 19.2426134,10.6743704 19.1519091,10.915211 C18.9992374,11.3205891 18.8462452,11.7759847 18.7033786,12.2701088 C18.233087,13.8966779 17.983353,15.5388283 18.0689447,17.0625115 C18.1808229,19.050848 18.5839947,20.8182487 19.1874856,22.3547813 C19.1172612,20.72599 19.1542755,19.061177 19.3450959,17.4726813 C19.4710788,16.4239297 19.6614687,15.4515455 19.9237095,14.5702302 C20.1833338,13.6978626 20.5437025,12.7354324 20.9919029,11.6968955 C21.3563546,10.8524147 21.7740503,9.96882463 22.2348773,9.05809837 C22.7959763,7.94920574 23.3939772,6.85221404 23.9944709,5.80875293 Z M9.44389461,10.227966 C9.90305799,10.227966 10.2752835,10.5914447 10.2752835,11.0398185 L10.2752835,11.0398185 L10.275,14.742 L14.4598502,14.742264 C14.9190136,14.742264 15.291239,15.1057427 15.291239,15.5541165 C15.291239,15.9679999 14.9740765,16.3095468 14.5641378,16.3596434 L14.4598502,16.3659689 L10.275,16.365 L10.2752835,20.4420255 C10.2752835,20.855909 9.95812093,21.1974558 9.54818226,21.2475525 L9.44389461,21.253878 C8.98473123,21.253878 8.61250576,20.8903993 8.61250576,20.4420255 L8.61250576,20.4420255 L8.612,16.365 L4.83138885,16.3659689 C4.37222547,16.3659689 4,16.0024902 4,15.5541165 C4,15.140233 4.31716253,14.7986861 4.7271012,14.7485895 L4.83138885,14.742264 L8.612,14.742 L8.61250576,11.0398185 C8.61250576,10.625935 8.92966829,10.2843881 9.33960696,10.2342915 Z"/>
</svg>
