<svg xmlns="http://www.w3.org/2000/svg" width="30" height="30" viewBox="0 0 30 30">
  <path fill="none" stroke="#B8B8B8" stroke-linecap="round" stroke-linejoin="round" d="M14.999942,19.5162544 L11.3293656,21.4001155 C10.896196,21.6224325 10.3597064,21.4611896 10.1310826,21.0399695 C10.0399069,20.8719859 10.0083141,20.6794307 10.0412089,20.4921983 L10.7431225,16.4970174 L7.76658121,13.6645813 C7.41651114,13.3314594 7.41043287,12.7854514 7.75300503,12.4450384 C7.88888509,12.3100148 8.06660089,12.2221142 8.25884391,12.1948437 L12.3690829,11.6117894 L14.2040523,7.98212355 C14.4201397,7.55469151 14.951645,7.3785304 15.3912027,7.5886567 C15.5670826,7.67273436 15.7093689,7.81109552 15.7958317,7.98212355 L17.6308012,11.6117894 L21.7410402,12.1948437 C22.225711,12.2635963 22.5612983,12.7013959 22.4905953,13.1726965 C22.4625512,13.3596363 22.372157,13.5324496 22.2333029,13.6645813 L19.2567616,16.4970174 L19.9586751,20.4921983 C20.0411593,20.961685 19.7166348,21.4073012 19.2338293,21.4875099 C19.0412854,21.5194974 18.8432676,21.488776 18.6705185,21.4001155 L14.999942,19.5162544 Z"/>
</svg>
