<svg xmlns="http://www.w3.org/2000/svg" width="30" height="30" viewBox="0 0 30 30">
  <g fill="none" fill-rule="evenodd">
    <circle cx="15" cy="15" r="7.475" stroke="#88CF45" stroke-width="1.05"/>
    <path fill="#88CF45" d="M19.8974519,13.0535176 L14.3585577,18.8931533 C14.2893269,18.9639447 14.2200962,19 14.1149519,19 C14.0119712,19 13.9089904,18.9639447 13.8735096,18.8931533 L11.174375,15.9392588 L11.1047115,15.8684673 C11.0354808,15.7981156 11,15.6917085 11,15.6231156 C11,15.5527638 11.0354808,15.4463568 11.1047115,15.3755653 L11.5884615,14.8826633 C11.7269231,14.7437186 11.9346154,14.7437186 12.0735096,14.8826633 L12.1089904,14.9187186 L14.0119712,16.9936558 C14.0812019,17.0640075 14.1846154,17.0640075 14.2538462,16.9936558 L18.8931731,12.1055276 L18.9273558,12.1055276 C19.0658173,11.9648241 19.2735096,11.9648241 19.4124038,12.1055276 L19.8974519,12.5966709 C20.0341827,12.7030779 20.0341827,12.9145729 19.8974519,13.0535176 Z"/>
  </g>
</svg>
