<svg xmlns="http://www.w3.org/2000/svg" width="36" height="36" viewBox="0 0 36 36">
  <g fill="none" fill-rule="evenodd" transform="translate(8 8)">
    <circle cx="10" cy="10" r="9" stroke="#88CF45" stroke-width="2"/>
    <path fill="#88CF45" d="M14.8860577,7.2040201 L8.73173077,13.8778894 C8.65480769,13.958794 8.57788462,14 8.46105769,14 C8.34663462,14 8.23221154,13.958794 8.19278846,13.8778894 L5.19375,10.5020101 L5.11634615,10.4211055 C5.03942308,10.3407035 5,10.2190955 5,10.1407035 C5,10.0603015 5.03942308,9.93869347 5.11634615,9.85778894 L5.65384615,9.29447236 C5.80769231,9.13567839 6.03846154,9.13567839 6.19278846,9.29447236 L6.23221154,9.33567839 L8.34663462,11.7070352 C8.42355769,11.7874372 8.53846154,11.7874372 8.61538462,11.7070352 L13.7701923,6.12060302 L13.8081731,6.12060302 C13.9620192,5.95979899 14.1927885,5.95979899 14.3471154,6.12060302 L14.8860577,6.68190955 C15.0379808,6.80351759 15.0379808,7.04522613 14.8860577,7.2040201 Z"/>
  </g>
</svg>
