<svg xmlns="http://www.w3.org/2000/svg" width="70" height="70" viewBox="0 0 70 70">
  <path fill="#FFF" fill-rule="evenodd" d="M56.0303429,23.9644148 L29.865366,51.4821081 C29.5383293,51.8156936 29.2112927,51.9855942 28.7146058,51.9855942 C28.2281387,51.9855942 27.7416717,51.8156936 27.5740654,51.4821081 L14.8237236,37.5626846 L14.4946429,37.2290991 C14.1676063,36.8975856 14,36.3961714 14,36.0729458 C14,35.7414323 14.1676063,35.2400181 14.4946429,34.9064326 L16.7798116,32.5837661 C17.4338849,31.9290269 18.4149949,31.9290269 19.0711122,32.5837661 L19.2387185,32.7536667 L28.2281387,42.5312433 C28.5551754,42.8627568 29.0436864,42.8627568 29.3707231,42.5312433 L51.2862673,19.4972703 L51.4477416,19.4972703 C52.101815,18.8342432 53.0829249,18.8342432 53.7390422,19.4972703 L56.0303429,21.811649 C56.6762403,22.3130631 56.6762403,23.3096756 56.0303429,23.9644148 Z"/>
</svg>
