<svg xmlns="http://www.w3.org/2000/svg" width="30" height="30" viewBox="0 0 30 30">
  <g fill="#FF2567" fill-rule="evenodd" transform="translate(2 2)">
    <path d="M9.45,18.9 C14.6690909,18.9 18.9,14.6690909 18.9,9.45 C18.9,4.23090911 14.6690909,0 9.45,0 C4.23090911,0 0,4.23090911 0,9.45 C0,14.6690909 4.23090911,18.9 9.45,18.9 Z M9.45,16.2 C5.72207794,16.2 2.7,13.1779221 2.7,9.45 C2.7,5.72207794 5.72207794,2.7 9.45,2.7 C13.1779221,2.7 16.2,5.72207794 16.2,9.45 C16.2,13.1779221 13.1779221,16.2 9.45,16.2 Z" opacity=".3" transform="translate(4.05 4.05)"/>
    <path d="M13.5,21.15 C17.7249783,21.15 21.15,17.7249783 21.15,13.5 C21.15,9.27502166 17.7249783,5.85 13.5,5.85 C9.27502166,5.85 5.85,9.27502166 5.85,13.5 C5.85,17.7249783 9.27502166,21.15 13.5,21.15 Z M13.5,20.25 C9.77207794,20.25 6.75,17.2279221 6.75,13.5 C6.75,9.77207794 9.77207794,6.75 13.5,6.75 C17.2279221,6.75 20.25,9.77207794 20.25,13.5 C20.25,17.2279221 17.2279221,20.25 13.5,20.25 Z"/>
    <path d="M13.4944099,18 C13.0024845,18 12.6,17.6051613 12.6,17.1058065 C12.6,16.5948387 13.0024845,16.2 13.4944099,16.2 C13.9975155,16.2 14.4,16.5948387 14.4,17.1058065 C14.4,17.6051613 13.9975155,18 13.4944099,18 Z M12.84,15.3 L12.6,9 L14.4,9 L14.1466667,15.3 L12.84,15.3 Z"/>
  </g>
</svg>
