<svg xmlns="http://www.w3.org/2000/svg" width="30" height="30" viewBox="0 0 30 30">
  <path fill="#0C2340" d="M24.7109226,12.703591 C25.2533895,12.703591 25.6813371,13.0656286 25.9347764,13.5748432 L26,13.7058915 L26,16.4346579 C26,17.0648256 25.4838636,17.5833406 24.8537303,17.5833406 L23.664629,17.5833406 C23.4668278,18.2631502 23.2210543,18.8790395 22.9181478,19.4418516 L23.7241308,20.2515487 C23.9397596,20.4681712 24.048295,20.768019 24.048295,21.0733849 C24.048295,21.3787508 23.9397596,21.6785986 23.7241308,21.8952211 L21.9152334,23.7124544 C21.6990245,23.9296596 21.398894,24.0393009 21.0931279,24.0393009 C20.7873618,24.0393009 20.4872313,23.9296596 20.2710224,23.7124544 L19.5222009,22.9601821 C18.9036705,23.3129304 18.2381841,23.5928929 17.526744,23.8000467 L17.526744,24.8513173 C17.526744,25.481485 17.0106075,26 16.3804743,26 L13.809936,26 C13.1798027,26 12.6636663,25.481485 12.6636663,24.8513173 L12.6636663,23.8537746 C11.8868713,23.6385598 11.1753544,23.3448589 10.5214042,22.9641979 L9.58616988,23.9037421 C9.36996099,24.1209473 9.0698305,24.2305886 8.76406439,24.2305886 C8.45829828,24.2305886 8.1581678,24.1209473 7.94195891,23.9037421 L6.08545899,22.0386869 C5.86983019,21.8220644 5.76129479,21.5222166 5.76129479,21.2168507 C5.76129479,20.9114848 5.86983019,20.611637 6.08545899,20.3950145 L7.07955032,19.3963421 C6.75447465,18.8090718 6.49898406,18.2007343 6.32469722,17.5833406 L5.14626969,17.5833406 C4.51613644,17.5833406 4,17.0648256 4,16.4346579 L4,13.8522737 C4,13.2221059 4.51613644,12.703591 5.14626969,12.703591 L6.32709719,12.703591 C6.53813518,11.9440267 6.82854086,11.2516754 7.21299885,10.5942556 L6.13306155,9.50934161 C5.91743276,9.29271913 5.80889735,8.99287132 5.80889735,8.68750543 C5.80889735,8.38213955 5.91743276,8.08229174 6.13306155,7.86566926 L7.98956147,6.00061404 C8.4233578,5.56481865 9.15237355,5.56481865 9.58616988,6.00061404 L10.7202309,7.13990114 C11.3156008,6.80827123 11.9310482,6.55184781 12.5684611,6.37810926 L12.5684611,5.14868272 C12.5684611,4.51851495 13.0845976,4 13.7147308,4 L16.2852692,4 C16.9154024,4 17.4315389,4.51851495 17.4315389,5.14868272 L17.4315389,6.45433377 C18.0638515,6.65612519 18.6485064,6.89918036 19.182506,7.18979057 L20.2234199,6.14407983 C20.6572162,5.70828444 21.386232,5.70828444 21.8200283,6.14407983 L23.6765282,8.00913504 C23.892157,8.22575752 24.0006924,8.52560533 24.0006924,8.83097122 C24.0006924,9.13633711 23.892157,9.43618492 23.6765282,9.6528074 L22.6798613,10.6540673 C23.0384226,11.3092742 23.3188274,11.9877472 23.5250621,12.703591 L24.7109226,12.703591 Z M24.7109226,13.948874 L22.5525113,13.948874 L22.4389747,13.4698228 C22.2194591,12.5436087 21.8681434,11.6943598 21.3704204,10.8761507 L21.1167811,10.4591919 L22.7375329,8.83097122 L21.0217241,7.10725543 L19.3745092,8.7620612 L18.9531398,8.49749173 C18.2983642,8.08637114 17.5239636,7.76406955 16.6415386,7.51782193 L16.1862558,7.3907717 L16.1862558,5.24528302 L13.8137442,5.24528302 L13.8137442,7.38025502 L13.3137536,7.48071395 C12.494373,7.64534527 11.7092672,7.97398018 10.9516551,8.4496698 L10.5302857,8.71423928 L8.78786567,6.96378964 L7.07205683,8.68750543 L8.80219618,10.4256178 L8.52122354,10.8490189 C7.99498829,11.6420094 7.64229341,12.4794935 7.41965408,13.4636209 L7.30987517,13.948874 L5.24528302,13.948874 L5.24528302,16.3380576 L7.3180447,16.3380576 L7.42176345,16.832992 C7.58713888,17.6221452 7.92010553,18.4137978 8.38829475,19.1663526 L8.64877617,19.5850435 L7.02445427,21.2168507 L8.76406439,22.9644775 L10.3506039,21.3706267 L10.776633,21.6559549 C11.5441209,22.1699714 12.4169959,22.5316916 13.4249027,22.761817 L13.9089493,22.8723345 L13.9089493,24.754717 L16.281461,24.754717 L16.281461,22.8297413 L16.7592572,22.7154561 C17.6908599,22.4926237 18.5294362,22.1379119 19.2781012,21.6512492 L19.7020282,21.3756794 L21.0931279,22.7731898 L22.7851355,21.0733849 L21.3512238,19.6328654 L21.6117052,19.2141745 C22.0343257,18.5348656 22.35055,17.7461392 22.583427,16.8103386 L22.7009556,16.3380576 L24.754717,16.3380576 L24.754717,14.0181329 C24.7215956,13.9695549 24.7008178,13.948874 24.7109226,13.948874 Z M15,20.643944 C11.8880171,20.643944 9.356056,18.1237594 9.356056,15.0233549 C9.356056,11.9158439 11.8950444,9.356056 15,9.356056 C18.1119829,9.356056 20.643944,11.8762406 20.643944,14.9766451 C20.643944,18.0997019 18.1366562,20.643944 15,20.643944 Z M15,19.398661 C17.444794,19.398661 19.398661,17.4159964 19.398661,14.9766451 C19.398661,12.5652943 17.4255283,10.601339 15,10.601339 C12.5850798,10.601339 10.601339,12.601339 10.601339,15.0233549 C10.601339,17.4347057 12.5744717,19.398661 15,19.398661 Z"/>
</svg>
