<svg xmlns="http://www.w3.org/2000/svg" width="30" height="30" viewBox="0 0 30 30">
  <path fill="#0C2340" d="M23.2825569,8 C24.7770123,8 25.9999444,9.13658974 25.9999444,10.5307261 L25.9999444,10.5307261 L25.999,11.927 L26,11.927221 L26,19.4692739 C26,20.8634103 24.7770679,22 23.2826125,22 L6.71744306,22 C5.22298772,22 4.00005559,20.8634103 4.00005559,19.4692739 L4.00005559,11.927221 L4,10.5307261 C4,9.13658974 5.22293214,8 6.71738747,8 L6.71738747,8 Z M25.0122504,12.8556201 L4.98780517,12.8556201 L4.98780517,19.4692739 C4.98780517,20.3483167 5.76603445,21.0716009 6.71744306,21.0716009 L23.2826125,21.0716009 C24.2340211,21.0716009 25.0122504,20.3483167 25.0122504,19.4692739 L25.0122504,12.8556201 Z M23.8320751,17.44 L23.8320751,18.84 L13.0052819,18.84 L13.0052819,17.44 L23.8320751,17.44 Z M9.21889483,14.8446519 C10.3370669,14.8446519 11.2264718,15.6712624 11.2264718,16.7052947 C11.2264718,17.739327 10.3370669,18.5659374 9.21889483,18.5659374 C8.10072276,18.5659374 7.21131785,17.739327 7.21131785,16.7052947 C7.21131785,15.6712624 8.10072276,14.8446519 9.21889483,14.8446519 Z M23.8320751,14.73 L23.8320751,16.13 L13.0052819,16.13 L13.0052819,14.73 L23.8320751,14.73 Z M23.2825569,8.92839914 L6.71738747,8.92839914 C5.76597886,8.92839914 4.98774959,9.65168328 4.98774959,10.5307261 L4.98774959,10.5307261 L4.98774959,11.332274 L25.0121948,11.332274 L25.0121948,10.5307261 L25.0058158,10.393307 C24.9297962,9.57755166 24.1838914,8.92839914 23.2825569,8.92839914 L23.2825569,8.92839914 Z"/>
</svg>
