<svg xmlns="http://www.w3.org/2000/svg" width="30" height="30" viewBox="0 0 30 30">
  <path fill="#0C2340" d="M14,8 C17.3137085,8 20,10.6862915 20,14 C20,15.3683112 19.5419696,16.6296436 18.7708667,17.6390395 L21.7656854,20.6343146 C22.0781049,20.946734 22.0781049,21.453266 21.7656854,21.7656854 C21.453266,22.0781049 20.946734,22.0781049 20.6343146,21.7656854 L20.6343146,21.7656854 L17.6390395,18.7708667 C16.6296436,19.5419696 15.3683112,20 14,20 C10.6862915,20 8,17.3137085 8,14 C8,10.6862915 10.6862915,8 14,8 Z M14,9.6 C11.5699471,9.6 9.6,11.5699471 9.6,14 C9.6,16.4300529 11.5699471,18.4 14,18.4 C16.4300529,18.4 18.4,16.4300529 18.4,14 C18.4,11.5699471 16.4300529,9.6 14,9.6 Z"/>
</svg>
