<svg xmlns="http://www.w3.org/2000/svg" width="30" height="30" viewBox="0 0 30 30">
  <path fill="#0C2340" d="M9.35543986,7.69601859 C9.68217757,7.69601859 9.94705082,7.9595845 9.94705082,8.28470953 C9.94705082,8.57732205 9.73250349,8.82007169 9.45140223,8.86569549 L9.35543986,8.87340046 L7.00437792,8.87340046 C6.58567287,8.87340046 6.24027853,9.18504092 6.18961849,9.58706511 L6.18322191,9.6893261 L6.183,12.593 L23.816,12.593 L23.8167781,9.6893261 C23.8167781,9.27422013 23.5029969,8.93023707 23.0985056,8.87977284 L22.9956221,8.87340046 L21.0089925,8.87340046 C20.6822548,8.87340046 20.4173815,8.60983455 20.4173815,8.28470953 C20.4173815,7.992097 20.6319289,7.74934736 20.9130301,7.70372356 L21.0089925,7.69601859 L22.9956221,7.69601859 C24.0515605,7.69601859 24.9179195,8.50987023 24.9944977,9.54065922 L25,9.6893261 L25,23.0066925 C25,24.0575973 24.181941,24.9184454 23.1451572,24.9945331 L22.9956221,25 L7.00437792,25 C5.94730989,25 5.0819778,24.187221 5.00549528,23.1555056 L5,23.0066925 L5,9.6893261 C5,8.6389147 5.81758608,7.77761801 6.85477826,7.70148859 L7.00437792,7.69601859 L9.35543986,7.69601859 Z M23.816,13.771 L6.183,13.771 L6.18322191,23.0066925 C6.18322191,23.422885 6.49599464,23.7659487 6.90126167,23.816265 L7.00437792,23.8226181 L22.9956221,23.8226181 C23.4141308,23.8226181 23.7596913,23.511158 23.810378,23.1089951 L23.8167781,23.0066925 L23.816,13.771 Z M11.0347867,6 C11.3288507,6 11.5728044,6.21348839 11.6186545,6.49320221 L11.6263977,6.58869094 L11.626725,9.80800111 C11.9108835,9.99720279 12.0979116,10.3194842 12.0979116,10.6853912 C12.0979116,11.2681952 11.6234396,11.7403253 11.0377448,11.7403253 C10.4520499,11.7403253 9.97757794,11.2681952 9.97757794,10.6853912 C9.97757794,10.3220459 10.1619964,10.0017176 10.4428105,9.81199455 L10.4431758,6.58869094 C10.4431758,6.26356591 10.708049,6 11.0347867,6 Z M19.0806957,6 C19.3747597,6 19.6187134,6.21348839 19.6645635,6.49320221 L19.6723067,6.58869094 L19.6725888,9.82311354 C20.1038278,10.1244925 20.2517821,10.705984 19.9972194,11.1810689 C19.7227119,11.6944074 19.0802224,11.8898528 18.5643377,11.6167002 C18.0472697,11.3435476 17.8508549,10.7042293 18.1265456,10.1897134 C18.2147801,10.0247117 18.340911,9.89255363 18.4886314,9.7982438 L18.4890848,6.58869094 C18.4890848,6.26356591 18.753958,6 19.0806957,6 Z M17.2129799,7.69601859 C17.5397177,7.69601859 17.8045909,7.9595845 17.8045909,8.28470953 C17.8045909,8.57732205 17.5900436,8.82007169 17.3089423,8.86569549 L17.2129799,8.87340046 L12.9356327,8.87340046 C12.608895,8.87340046 12.3440218,8.60983455 12.3440218,8.28470953 C12.3440218,7.992097 12.5585691,7.74934736 12.8396704,7.70372356 L12.9356327,7.69601859 L17.2129799,7.69601859 Z"/>
</svg>
