<svg xmlns="http://www.w3.org/2000/svg" width="30" height="30" viewBox="0 0 30 30">
  <path fill="#0C2340" d="M18.6344329,8.02548005 C20.8308805,8.02548005 22.6114414,9.80599037 22.6114414,12.0024192 C22.6114414,13.0077091 22.2348792,13.948784 21.5875118,14.6656423 C23.7524821,15.7308611 25.2141352,17.9139451 25.3123646,20.3955686 L25.3176419,20.6625619 L25.3176419,21.2625619 L21.841,21.262 L21.8416622,21.2671971 L8.47528578,21.2671971 L8.47528578,20.6671971 C8.47528578,18.0763534 9.96265049,15.774182 12.205222,14.6697962 C11.5689339,13.965765 11.1814724,13.031647 11.1814724,12.0070267 C11.1814724,9.81063578 12.9619953,8.03008755 15.1584115,8.03008755 C15.7805528,8.03008755 16.3693303,8.17294439 16.8937295,8.42764351 C17.429502,8.16463101 18.0222215,8.02548005 18.6344329,8.02548005 Z M17.0343409,15.5130129 L17.0026346,15.5314949 C16.4513982,15.8205302 15.8239989,15.9840353 15.1584115,15.9840353 C14.479352,15.9840353 13.8400473,15.8138436 13.2808224,15.5137878 C11.4021284,16.1973181 10.0429379,17.8575086 9.73928668,19.829148 L9.70794943,20.0671971 L20.6089969,20.0671971 C20.3818431,17.991361 18.9891777,16.2237881 17.0343409,15.5130129 Z M20.5088349,15.5078515 L20.3298736,15.5999268 C20.144579,15.6875089 19.9528345,15.7605712 19.7561041,15.8184427 C20.9122761,16.9125333 21.6654764,18.4113204 21.8144715,20.0623092 L24.0849779,20.0625619 C23.8577744,17.9861943 22.464499,16.2182842 20.5088349,15.5078515 Z M20.444,14.853 L20.444,14.852 L20.397,14.779 L20.444,14.853 Z M15.1584115,9.23008755 C13.6247408,9.23008755 12.3814724,10.4733737 12.3814724,12.0070267 C12.3814724,13.5407403 13.624732,14.7840353 15.1584115,14.7840353 C16.6921081,14.7840353 17.9354201,13.5407233 17.9354201,12.0070267 C17.9354201,10.4733907 16.6920993,9.23008755 15.1584115,9.23008755 Z M21.4114414,12.0024192 C21.4114414,10.4687397 20.1681465,9.22548005 18.6344329,9.22548005 C18.4386885,9.22548005 18.2461137,9.24572874 18.0589453,9.28518576 C18.7267871,9.99807955 19.1354201,10.9548386 19.1354201,12.0070267 C19.1354201,13.0316426 18.7479455,13.9657603 18.1115327,14.6708434 L18.2744894,14.7555282 C18.3948944,14.7713891 18.5148469,14.7794278 18.6344329,14.7794278 C19.1688622,14.7794278 19.6798613,14.6280206 20.1219368,14.3467905 L20.1219368,14.3467905 C20.919246,13.8396254 21.4114414,12.9636164 21.4114414,12.0024192 Z M11.683209,8 C12.3463352,8 12.9866245,8.16331087 13.5578337,8.46932676 L13.7687086,8.59073176 L13.138548,9.61195535 C12.7041323,9.3438929 12.2048945,9.2 11.683209,9.2 C10.1495125,9.2 8.90620047,10.443312 8.90620047,11.9770086 C8.90620047,12.8741059 9.33494084,13.6969706 10.0403668,14.2151024 L10.1957051,14.3213798 C10.6377806,14.60261 11.1487797,14.7540171 11.683209,14.7540171 C11.8405096,14.7540171 11.9987551,14.7400425 12.1582553,14.7126035 L12.1582553,14.7126035 L12.361704,15.8952314 C12.1361111,15.9340404 11.9098984,15.9540171 11.683209,15.9540171 C11.0197051,15.9540171 10.3792013,15.7902333 9.80781857,15.4838051 C7.92574952,16.1666008 6.56424341,17.8308863 6.26281307,19.8068234 L6.23266696,20.0370818 L9.30057465,20.0370818 L9.30057465,21.2370818 L5,21.2370818 L5,20.6370818 C5,18.045882 6.48789808,15.7434323 8.73105621,14.6392539 C8.08269366,13.9231742 7.70620047,12.9822067 7.70620047,11.9770086 C7.70620047,9.78057029 9.48677077,8 11.683209,8 Z"/>
</svg>
