<svg xmlns="http://www.w3.org/2000/svg" width="30" height="30" viewBox="0 0 30 30">
  <g fill="none" fill-rule="evenodd">
    <path fill="#0C2340" fill-rule="nonzero" d="M8,15.5 C12.1421356,15.5 15.5,12.1421356 15.5,8 C15.5,3.85786438 12.1421356,0.5 8,0.5 C3.85786438,0.5 0.5,3.85786438 0.5,8 C0.5,12.1421356 3.85786438,15.5 8,15.5 Z M8,13 C5.23857625,13 3,10.7614237 3,8 C3,5.23857625 5.23857625,3 8,3 C10.7614237,3 13,5.23857625 13,8 C13,10.7614237 10.7614237,13 8,13 Z" opacity=".3" transform="translate(7 7)"/>
    <path fill="#0C2340" fill-rule="nonzero" d="M15,9 C18.3137085,9 21,11.6862915 21,15 C21,18.3137085 18.3137085,21 15,21 C11.6862915,21 9,18.3137085 9,15 C9,11.6862915 11.6862915,9 15,9 Z M17.3342832,11.7745827 L13.8397445,16.6970922 L12.6404952,15.2075938 C12.405933,14.9162616 11.9958823,14.8843099 11.7246212,15.1362277 C11.4533601,15.3881455 11.4236097,15.8285367 11.6581718,16.1198689 L13.380276,18.2587665 C13.649853,18.5935881 14.1379098,18.5774495 14.3877972,18.2254508 L18.3670021,12.6202262 C18.5844321,12.313948 18.5295119,11.8763566 18.2443345,11.6428386 C17.959157,11.4093206 17.5517132,11.4683044 17.3342832,11.7745827 Z"/>
  </g>
</svg>
