<svg xmlns="http://www.w3.org/2000/svg" width="30" height="30" viewBox="0 0 30 30">
  <g fill="none" fill-rule="evenodd">
    <path fill="#0C2340" fill-rule="nonzero" d="M10.5,21 C16.2989899,21 21,16.2989899 21,10.5 C21,4.70101013 16.2989899,0 10.5,0 C4.70101013,0 0,4.70101013 0,10.5 C0,16.2989899 4.70101013,21 10.5,21 Z M10.5,18 C6.35786438,18 3,14.6421356 3,10.5 C3,6.35786438 6.35786438,3 10.5,3 C14.6421356,3 18,6.35786438 18,10.5 C18,14.6421356 14.6421356,18 10.5,18 Z" opacity=".3" transform="translate(5 5)"/>
    <path fill="#0C2340" fill-rule="nonzero" d="M15.5,24 C20.1944204,24 24,20.1944204 24,15.5 C24,10.8055796 20.1944204,7 15.5,7 C10.8055796,7 7,10.8055796 7,15.5 C7,20.1944204 10.8055796,24 15.5,24 Z M15.5,23 C11.3578644,23 8,19.6421356 8,15.5 C8,11.3578644 11.3578644,8 15.5,8 C19.6421356,8 23,11.3578644 23,15.5 C23,19.6421356 19.6421356,23 15.5,23 Z"/>
    <path fill="#0C2340" fill-rule="nonzero" d="M14.6441441,17.2704918 L14.6441441,16.8032787 C14.6441441,15.8319672 15.240991,15.2295082 15.7815315,14.6516393 C16.1981982,14.1967213 16.5698198,13.7909836 16.5698198,13.2622951 C16.5698198,12.6352459 16.2545045,12.2295082 15.5675676,12.2295082 C14.8693694,12.2295082 14.3851351,12.7704918 14.3063063,13.6188525 L13,13.6188525 C13.0788288,12.0081967 14.1261261,11 15.6351351,11 C17.2454955,11 18,11.9590164 18,13.1516393 C18,14.0245902 17.5157658,14.5901639 17.009009,15.1311475 C16.4797297,15.6844262 15.9391892,16.1885246 15.9054054,16.8770492 L15.9054054,17.2704918 L14.6441441,17.2704918 Z M15.2635135,20 C14.7567568,20 14.3400901,19.5819672 14.3400901,19.0532787 C14.3400901,18.5122951 14.7567568,18.0942623 15.2635135,18.0942623 C15.759009,18.0942623 16.1644144,18.5122951 16.1644144,19.0532787 C16.1644144,19.5819672 15.759009,20 15.2635135,20 Z"/>
  </g>
</svg>
