<svg xmlns="http://www.w3.org/2000/svg" width="30" height="30" viewBox="0 0 30 30">
  <g fill="none" transform="translate(0 7)">
    <path fill="#ED3124" d="M27.8536821,-8.43769499e-14 C25.3887248,3.96953846 23.0987077,9.3977094 24.0337162,15.003453 C21.866947,11.8442393 21.5299897,7.7722735 23.1520752,4.29764103 L20.0117675,4.29764103 L27.8536821,-8.43769499e-14 Z"/>
    <path fill="#0C2340" d="M1.12835163 16.2930564L1.52192147 16.2930564 1.52192147 15.0574667 1.12835163 15.0574667 1.12835163 16.2930564zM1.07735385 14.688441C1.07735385 14.6027658 1.18267535 14.529535 1.32753862 14.529535 1.4679673 14.529535 1.57735385 14.6027658 1.57735385 14.688441 1.57735385 14.7745949 1.4679673 14.8478256 1.32753862 14.8478256 1.18267535 14.8478256 1.07735385 14.7745949 1.07735385 14.688441L1.07735385 14.688441zM1.62892991 15.0575145L1.88164786 15.0575145 1.88164786 15.186506C1.95727179 15.097959 2.05850256 15.0371726 2.19228034 15.0371726 2.22769915 15.0371726 2.26814359 15.0445915 2.29590427 15.0524889L2.29590427 15.2822325C2.26527179 15.2748137 2.22243419 15.2647624 2.16715214 15.2647624 2.0281094 15.2647624 1.94985299 15.3126256 1.88404103 15.3683863L1.88404103 16.2931043 1.62892991 16.2931043 1.62892991 15.0575145zM2.38449915 16.2452171L2.38449915 16.0427556C2.46538803 16.0784137 2.60945641 16.1162256 2.72552479 16.1162256 2.88754188 16.1162256 2.96579829 16.0628581 2.96579829 15.9494222 2.96579829 15.8457983 2.88754188 15.8180376 2.73557607 15.7649094 2.55369573 15.7117812 2.38689231 15.6160547 2.38689231 15.3934906 2.38689231 15.1486701 2.56637949 15.037388 2.82914872 15.037388 2.95814017 15.037388 3.07923419 15.0649094 3.14002051 15.0902769L3.14002051 15.2948923C3.07420855 15.2673709 2.96053333 15.234106 2.8392 15.234106 2.69800342 15.234106 2.62955897 15.2846017 2.62955897 15.3760205 2.62955897 15.4669607 2.69273846 15.5023795 2.85188376 15.5526359 3.02371282 15.6083966 3.21588376 15.6892855 3.21588376 15.934106 3.21588376 16.1715077 3.0337641 16.3134222 2.76357607 16.3134222 2.61711453 16.3134222 2.47304615 16.2854222 2.38449915 16.2452171M3.43502564 15.959641L3.43502564 15.2445641 3.26582906 15.2445641 3.26582906 15.0574188 3.43789744 15.0574188 3.48312821 14.7288376 3.69037607 14.7288376 3.69037607 15.0574188 3.97324786 15.0574188 3.97324786 15.2445641 3.69037607 15.2445641 3.69037607 15.9218291C3.69037607 16.0508205 3.73560684 16.1061026 3.84952137 16.1061026 3.91246154 16.1061026 3.96846154 16.0910256 4.0062735 16.0759487L4.0062735 16.2779316C3.9605641 16.2930085 3.88757265 16.3133504 3.79136752 16.3133504 3.55611966 16.3133504 3.43502564 16.2173846 3.43502564 15.959641M5.58020855 15.7119009L5.42872137 15.2572C5.39306325 15.1511829 5.35022564 15.0221915 5.33275556 14.9465675L5.3274906 14.9465675C5.30738803 15.0221915 5.26431111 15.1511829 5.22889231 15.2572L5.06974701 15.7119009 5.58020855 15.7119009zM5.18844786 14.7189778L5.49190085 14.7189778 6.05764444 16.2932 5.76974701 16.2932 5.64841368 15.9265675 4.99914872 15.9265675 4.87278974 16.2932 4.60499487 16.2932 5.18844786 14.7189778zM6.98805812 15.6766017C6.98805812 15.4315419 6.91243419 15.2470291 6.67455385 15.2470291 6.58887863 15.2470291 6.50535726 15.2774222 6.45462222 15.3204991L6.45462222 16.0834393C6.50798974 16.1009094 6.58122051 16.1109607 6.64942564 16.1109607 6.88682735 16.1109607 6.98805812 15.924294 6.98805812 15.6766017M6.19975043 16.2299009L6.19975043 14.5747897 6.45462222 14.5747897 6.45462222 15.1532171C6.50057094 15.1032 6.60658803 15.037388 6.75328889 15.037388 7.11178462 15.037388 7.25848547 15.3178667 7.25848547 15.6639179 7.25848547 16.0202598 7.04357949 16.3134222 6.64416068 16.3134222 6.47759658 16.3134222 6.31342564 16.2753709 6.19975043 16.2299009M7.43304274 15.8761915L7.43304274 15.0574906 7.68576068 15.0574906 7.68576068 15.835747C7.68576068 16.0075761 7.73841026 16.1085675 7.92316239 16.1085675 8.02176068 16.1085675 8.11270085 16.0630974 8.17348718 16.022653L8.17348718 15.0574906 8.42835897 15.0574906 8.42835897 16.2930803 8.17588034 16.2930803 8.17588034 16.1944821C8.11509402 16.2423453 7.99639316 16.3131829 7.8348547 16.3131829 7.5342735 16.3131829 7.43304274 16.1262769 7.43304274 15.8761915M9.72408889 16.0757812C10.1359521 16.0757812 10.2369436 15.8103795 10.2369436 15.5074051 10.2369436 15.2039521 10.1407385 14.9311316 9.7389265 14.9311316L9.52425983 14.9311316 9.52425983 16.0757812 9.72408889 16.0757812zM9.2614906 14.7190974L9.76931966 14.7190974C10.3101744 14.7190974 10.5150291 15.097935 10.5150291 15.5074051 10.5150291 15.8939009 10.3178325 16.2930803 9.76166154 16.2930803L9.2614906 16.2930803 9.2614906 14.7190974zM10.7423316 14.5749094L10.9926564 14.5749094 10.9926564 15.1562085C11.0558359 15.1083453 11.1721436 15.0375077 11.3339214 15.0375077 11.6345026 15.0375077 11.7378872 15.2241744 11.7378872 15.4744991L11.7378872 16.2932 11.4827761 16.2932 11.4827761 15.5149436C11.4827761 15.3431145 11.4322803 15.2418838 11.2475282 15.2418838 11.1465368 15.2418838 11.0558359 15.2875932 10.9976821 15.3277983L10.9976821 16.2932 10.7423316 16.2932 10.7423316 14.5749094zM12.5699419 16.0379214L12.5699419 15.7500239C12.5522325 15.7500239 12.5067624 15.7471521 12.4739761 15.7471521 12.264335 15.7471521 12.1504205 15.8055453 12.1504205 15.9443487 12.1504205 16.0582632 12.2262838 16.1214427 12.3526427 16.1214427 12.4462154 16.1214427 12.5247111 16.0833915 12.5699419 16.0379214M12.6029675 16.1743316C12.5472068 16.2451692 12.4258735 16.313135 12.279412 16.313135 12.0467966 16.313135 11.8929162 16.1822291 11.8929162 15.9644513 11.8929162 15.7093402 12.1075829 15.5856137 12.4488479 15.5856137 12.489053 15.5856137 12.5371556 15.5882462 12.5699419 15.5906393L12.5699419 15.492041C12.5699419 15.3151863 12.4991043 15.2419556 12.3172239 15.2419556 12.1884718 15.2419556 12.0798222 15.2797675 12.0065915 15.3127932L12.0065915 15.1055453C12.092506 15.0701265 12.2186256 15.0371009 12.362694 15.0371009 12.6534632 15.0371009 12.8252923 15.1610667 12.8252923 15.4492034L12.8252923 16.0101607C12.8252923 16.0884171 12.8604718 16.1135453 12.9159932 16.1135453 12.9289162 16.1135453 12.9463863 16.1113915 12.9617026 16.1085197L12.9617026 16.2853744C12.9313094 16.2982974 12.890865 16.313135 12.8173949 16.313135 12.7089846 16.313135 12.6357538 16.2602462 12.6029675 16.1743316M13.8859419 15.6766017C13.8859419 15.4315419 13.8100786 15.2470291 13.5724376 15.2470291 13.4865231 15.2470291 13.403241 15.2774222 13.352506 15.3204991L13.352506 16.0834393C13.4058735 16.1009094 13.4791043 16.1109607 13.5473094 16.1109607 13.7847111 16.1109607 13.8859419 15.924294 13.8859419 15.6766017M13.0973949 16.2299009L13.0973949 14.5747897 13.352506 14.5747897 13.352506 15.1532171C13.3982154 15.1032 13.5042325 15.037388 13.6509333 15.037388 14.0096684 15.037388 14.1561299 15.3178667 14.1561299 15.6639179 14.1561299 16.0202598 13.9412239 16.3134222 13.5420444 16.3134222 13.3754803 16.3134222 13.2113094 16.2753709 13.0973949 16.2299009M14.3606251 16.2930564L14.7545645 16.2930564 14.7545645 15.0574667 14.3606251 15.0574667 14.3606251 16.2930564zM14.3096274 14.688441C14.3096274 14.6027658 14.4149489 14.529535 14.5598121 14.529535 14.7002408 14.529535 14.8096274 14.6027658 14.8096274 14.688441 14.8096274 14.7745949 14.7002408 14.8478256 14.5598121 14.8478256 14.4149489 14.8478256 14.3096274 14.7745949 14.3096274 14.688441L14.3096274 14.688441zM16.0229641 16.0834872C16.2096308 16.0834872 16.3082291 15.9951795 16.3082291 15.8305299 16.3082291 15.6613333 16.2172889 15.568 16.0279897 15.568L15.7676137 15.568 15.7676137 16.0834872 16.0229641 16.0834872zM16.015306 15.3784615C16.1974256 15.3784615 16.2804684 15.2951795 16.2804684 15.1460855 16.2804684 15.017094 16.1995795 14.9287863 16.0179385 14.9287863L15.7676137 14.9287863 15.7676137 15.3784615 16.015306 15.3784615zM15.5050838 14.718906L16.0456991 14.718906C16.3716479 14.718906 16.5434769 14.8782906 16.5434769 15.1183248 16.5434769 15.3052308 16.4219043 15.4289573 16.2878872 15.4646154L16.2878872 15.4694017C16.4599556 15.5048205 16.5939726 15.628547 16.5939726 15.8384274 16.5939726 16.1138803 16.3917504 16.2931282 16.0607761 16.2931282L15.5050838 16.2931282 15.5050838 14.718906zM17.4179624 16.0379214L17.4179624 15.7500239C17.400253 15.7500239 17.3547829 15.7471521 17.3222359 15.7471521 17.1123556 15.7471521 16.998441 15.8055453 16.998441 15.9443487 16.998441 16.0582632 17.0743043 16.1214427 17.2006632 16.1214427 17.2942359 16.1214427 17.3727316 16.0833915 17.4179624 16.0379214M17.4512274 16.1743316C17.3952274 16.2451692 17.273894 16.313135 17.1274325 16.313135 16.8948171 16.313135 16.7406974 16.1822291 16.7406974 15.9644513 16.7406974 15.7093402 16.9556034 15.5856137 17.2968684 15.5856137 17.3370735 15.5856137 17.3851761 15.5882462 17.4179624 15.5906393L17.4179624 15.492041C17.4179624 15.3151863 17.3471248 15.2419556 17.1652444 15.2419556 17.0364923 15.2419556 16.9278427 15.2797675 16.854612 15.3127932L16.854612 15.1055453C16.9405265 15.0701265 17.0668855 15.0371009 17.2107145 15.0371009 17.5014838 15.0371009 17.6730735 15.1610667 17.6730735 15.4492034L17.6730735 16.0101607C17.6730735 16.0884171 17.7084923 16.1135453 17.7640137 16.1135453 17.7766974 16.1135453 17.7944068 16.1113915 17.8099624 16.1085197L17.8099624 16.2853744C17.7793299 16.2982974 17.7388855 16.313135 17.6654154 16.313135 17.5570051 16.313135 17.483535 16.2602462 17.4512274 16.1743316M17.9508 15.0575145L18.2008855 15.0575145 18.2008855 15.1561128C18.2643043 15.1080103 18.3803726 15.0371726 18.5421504 15.0371726 18.8429709 15.0371726 18.9463556 15.2240786 18.9463556 15.4744034L18.9463556 16.2931043 18.6912444 16.2931043 18.6912444 15.5148479C18.6912444 15.3430188 18.6405094 15.2420274 18.4562359 15.2420274 18.3550051 15.2420274 18.2643043 15.2874974 18.2061504 15.3279419L18.2061504 16.2931043 17.9508 16.2931043 17.9508 15.0575145zM19.8013128 16.1313983L19.4499966 15.6690393 19.4499966 16.2931761 19.1951248 16.2931761 19.1951248 14.5748855 19.4499966 14.5748855 19.4499966 15.5979624 19.8872274 15.0575863 20.167706 15.0575863 19.7055863 15.6132786 20.0289026 16.0277744C20.0691077 16.0809026 20.1021333 16.1036376 20.1576547 16.1036376 20.1629197 16.1036376 20.167706 16.1036376 20.1878085 16.1010051L20.1878085 16.2931761C20.1629197 16.3005949 20.135159 16.3032274 20.1124239 16.3032274 19.9908513 16.3032274 19.9027829 16.2678085 19.8013128 16.1313983"/>
    <polygon fill="#0C2340" points="0 14.719 .91 14.719 .91 14.936 .263 14.936 .263 15.368 .841 15.368 .841 15.573 .263 15.573 .263 16.293 0 16.293"/>
    <path fill="#0C2340" d="M13.8959932 4.29764103L17.2514462 4.29764103C19.162865 4.29764103 20.1957538 5.20369231 20.1957538 6.54864957 20.1957538 7.63873504 19.530694 8.3042735 18.8084376 8.50194872L18.8084376 8.53066667C19.7570872 8.74317949 20.4649846 9.408 20.4649846 10.5550427 20.4649846 12.1692308 19.2473436 13.1178803 17.3361641 13.1178803L13.8959932 13.1178803 13.8959932 4.29764103zM16.996335 7.89360684C17.874147 7.89360684 18.2422154 7.49729915 18.2422154 6.81764103 18.2422154 6.20905983 17.8602667 5.8122735 17.010694 5.8122735L15.8356513 5.8122735 15.8356513 7.89360684 16.996335 7.89360684zM17.0389333 11.6027692C17.9023863 11.6027692 18.3695316 11.2067009 18.3695316 10.4279658 18.3695316 9.63511111 17.9306256 9.22444444 17.053053 9.22444444L15.8356513 9.22444444 15.8356513 11.6027692 17.0389333 11.6027692zM7.86634872 4.29764103L10.0324 4.29764103 13.2600581 13.1178803 11.1509641 13.1178803 10.5845026 11.3624957 7.14409231 11.3624957 6.54963077 13.1178803 4.5532547 13.1178803 7.86634872 4.29764103zM10.074759 9.80502564L9.33862222 7.53965812C9.16846838 7.01555556 8.99879316 6.5062906 8.89971624 6.09586325L8.87147692 6.09586325C8.75851966 6.49217094 8.58836581 7.03015385 8.41845128 7.53965812L7.6538359 9.80502564 10.074759 9.80502564z"/>
    <polygon fill="#0C2340" points="0 4.298 5.408 4.298 5.408 5.897 1.939 5.897 1.939 7.95 5.026 7.95 5.026 9.423 1.939 9.423 1.939 13.118 0 13.118"/>
    <path fill="#0C2340" d="M2.10335043 2.11526838L1.8274188 2.11526838C1.75083761 2.11526838 1.68574359 2.08822564 1.6314188 2.03414017 1.57733333 1.9800547 1.55005128 1.91496068 1.55005128 1.83933675L1.55005128 1.66774701C1.55005128 1.59164444 1.57733333 1.52655043 1.6314188 1.47318291 1.68574359 1.41885812 1.75083761 1.3920547 1.8274188 1.3920547 1.90304274 1.3920547 1.96813675 1.41885812 2.02222222 1.47318291 2.07630769 1.52655043 2.10335043 1.59164444 2.10335043 1.66774701L2.10335043 2.11526838zM1.8274188 1.14914872C1.68406838 1.14914872 1.56153846 1.20012308 1.46006838 1.30207179 1.35835897 1.40258462 1.30762393 1.5246359 1.30762393 1.66774701L1.30762393 1.83933675C1.30762393 1.98244786 1.35835897 2.10473846 1.46006838 2.20668718 1.56153846 2.30743932 1.68406838 2.35817436 1.8274188 2.35817436L2.10335043 2.35817436C2.09952137 2.42159316 2.07415385 2.47639658 2.02652991 2.52162735 1.97890598 2.5666188 1.92338462 2.58935385 1.85948718 2.58935385L1.58594872 2.58935385C1.56584615 2.58935385 1.55579487 2.59964444 1.55579487 2.62046496L1.55579487 2.80186667C1.55579487 2.82268718 1.56584615 2.83321709 1.58594872 2.83321709L1.85948718 2.83321709C1.99182906 2.83321709 2.10574359 2.78487521 2.20123077 2.68867009 2.29767521 2.59270427 2.34601709 2.47902906 2.34601709 2.34668718L2.34601709 1.66774701C2.34601709 1.5246359 2.29552137 1.40258462 2.19476923 1.30207179 2.09305983 1.20012308 1.9702906 1.14914872 1.8274188 1.14914872L1.8274188 1.14914872zM3.72809231.636389744L3.54549402.636389744C3.52539145.636389744 3.51557949.646441026 3.51557949.66654359L3.51557949 1.93420171C3.51557949 1.99929573 3.50169915 2.04620171 3.47345983 2.07420171 3.4449812 2.10100513 3.39831453 2.11464615 3.33322051 2.1153641L2.61742564 2.1153641C2.59899829 2.1153641 2.58942564 2.12589402 2.58942564 2.14671453L2.58942564 2.32787692C2.58942564 2.34774017 2.59971624 2.35779145 2.61957949 2.35779145L3.33322051 2.35779145C3.46580171 2.35779145 3.57038291 2.31997949 3.64576752 2.24459487 3.72163077 2.16944957 3.75920342 2.06582564 3.75920342 1.93300513L3.75920342.66654359C3.75920342.646441026 3.74891282.636389744 3.72809231.636389744"/>
    <path fill="#0C2340" d="M2.99955216.818916239C2.95829479.818916239 2.93815726.828967521 2.93815726.849070085L2.93815726 1.97170256C2.93815726 1.99180513 2.95829479 2.00161709 2.99955216 2.00161709L3.37430658 2.00161709C3.41703742 2.00161709 3.43815726 1.99180513 3.43815726 1.97170256L3.43815726.849070085C3.43815726.828967521 3.41703742.818916239 3.37430658.818916239L2.99955216.818916239zM2.83819759.724646154L3.28856078.724646154C3.30502567.724646154 3.31325812.715726951 3.31325812.697626217L3.31325812.618402712C3.31325812.600826637 3.30502567.591645105 3.28856078.591645105L3.02972301.591645105 3.02972301.442904286C3.02972301.419294632 3.03722906.399357591 3.05320969.383093163 3.0682218.366828735 3.08638161.358696521 3.10817337.358696521 3.1430402.358696521 3.16628475.375747938 3.17911768.409850771L3.19388766.446576899C3.19679323.452872807 3.20139371.457857067 3.20647846.46126735 3.20986829.462841327 3.21350025.463628315 3.21640582.463628315 3.22003778.463628315 3.22366974.462841327 3.22657531.46126735L3.29437192.429263153C3.30478354.423754234 3.30986829.416409008 3.30986829.407489805 3.30986829.403292534 3.30889977.399357591 3.30744615.39516032L3.29316127.358696521C3.25829444.269242166 3.19679323.224646154 3.10817337.224646154 3.05296756.224646154 3.00502567.246157172 2.9650741.289179207 2.92609105.331414255 2.90672059.382830834 2.90672059.442904286L2.90672059.591645105 2.83819759.591645105C2.8217327.591645105 2.81325812.600826637 2.81325812.618402712L2.81325812.697626217C2.81325812.715726951 2.8217327.724646154 2.83819759.724646154M4.44139267.636389744L4.06725644.636389744C4.02431469.636389744 4.0030906.646919658 4.0030906.667500855L4.0030906 2.32787692C4.0030906 2.34774017 4.02431469 2.35779145 4.06725644 2.35779145L4.44139267 2.35779145C4.48285368 2.35779145 4.5030906 2.34774017 4.5030906 2.32787692L4.5030906.667500855C4.5030906.646919658 4.48285368.636389744 4.44139267.636389744M6.27514444 2.87552821L5.92714444 2.87552821C5.88364444 2.87552821 5.86164444 2.89652821 5.86164444 2.93852821L5.86164444 3.30802821C5.86164444 3.35152821 5.88364444 3.37302821 5.92714444 3.37302821L6.27514444 3.37302821C6.31714444 3.37302821 6.33814444 3.35152821 6.33814444 3.30802821L6.33814444 2.93852821C6.33814444 2.89652821 6.31714444 2.87552821 6.27514444 2.87552821"/>
    <path fill="#0C2340" d="M5.90928803 2.87552821L5.56078803 2.87552821C5.51828803 2.87552821 5.49778803 2.89652821 5.49778803 2.93852821L5.49778803 3.30802821C5.49778803 3.35152821 5.51828803 3.37302821 5.56078803 3.37302821L5.90928803 3.37302821C5.95128803 3.37302821 5.97178803 3.35152821 5.97178803 3.30802821L5.97178803 2.93852821C5.97178803 2.89652821 5.95128803 2.87552821 5.90928803 2.87552821M9.38603761 2.57171624L9.03503761 2.57171624C8.99303761 2.57171624 8.97203761 2.59271624 8.97203761 2.63471624L8.97203761 3.00371624C8.97203761 3.04771624 8.99303761 3.06921624 9.03503761 3.06921624L9.38603761 3.06921624C9.42803761 3.06921624 9.44903761 3.04771624 9.44903761 3.00371624L9.44903761 2.63471624C9.44903761 2.59271624 9.42803761 2.57171624 9.38603761 2.57171624M10.7822974 1.93180855C10.7822974 1.99762051 10.7681778 2.0445265 10.7399385 2.07204786 10.7124171 2.10028718 10.6657504 2.11464615 10.5996991 2.1153641L9.93200684 2.1153641 9.93200684 1.7248C10.0061949 1.64008205 10.1055111 1.56374017 10.2297162 1.49481709 10.3539214 1.42637265 10.4510838 1.39191111 10.5207248 1.39191111 10.6231521 1.39191111 10.6961436 1.43355214 10.7399385 1.51659487 10.7681778 1.56972308 10.7822974 1.63529573 10.7822974 1.71259487L10.7822974 1.93180855zM10.5207248 1.14828718C10.3591863 1.14828718 10.1627077 1.23731282 9.93200684 1.4153641L9.93200684.667500855C9.93200684.646680342 9.92171624.636389744 9.90089573.636389744L9.71829744.636389744C9.69819487.636389744 9.68838291.646680342 9.68838291.667500855L9.68838291 2.1153641 9.49070769 2.1153641 9.41292991 2.1153641 9.32270769 2.1153641C9.26862222 2.1153641 9.2329641 2.10746667 9.21597265 2.09191111 9.21070769 2.08449231 9.20807521 2.07420171 9.20807521 2.06103932L9.20807521 1.22510769C9.20807521 1.20500513 9.19778462 1.19495385 9.1769641 1.19495385L8.99436581 1.19495385C8.9749812 1.19495385 8.96540855 1.20500513 8.96540855 1.22510769L8.96540855 2.03088547C8.96540855 2.06271453 8.95918632 2.08497094 8.94650256 2.09741538 8.9338188 2.1093812 8.91299829 2.1153641 8.88428034 2.1153641L8.56694701 2.1153641 7.23156239 2.1153641 7.01569915 2.1153641 7.01569915 1.5656547C7.01569915 1.45030427 6.97477607 1.35242393 6.89316923 1.27057778 6.81228034 1.18897094 6.71392137 1.14828718 6.59833162 1.14828718 6.48322051 1.14828718 6.38534017 1.18897094 6.30445128 1.27057778 6.22284444 1.35242393 6.18216068 1.45030427 6.18216068 1.5656547L6.18216068 2.40493675 5.50872479 2.40493675C5.43022906 2.40493675 5.36178462 2.37645812 5.30387009 2.3202188 5.24763077 2.26374017 5.21939145 2.19553504 5.21939145 2.1153641 5.21939145 2.05864615 5.23422906 2.00647521 5.26390427 1.95813333 5.29334017 1.90931282 5.33306667 1.87269744 5.38284444 1.84804786L5.46445128 1.80592821C5.47689573 1.7999453 5.48311795 1.79228718 5.48311795 1.78271453 5.48311795 1.77721026 5.48120342 1.7719453 5.47785299 1.76596239L5.39528889 1.60346667C5.39169915 1.59604786 5.38571624 1.59054359 5.37757949 1.58791111 5.37446838 1.58647521 5.37111795 1.58575726 5.36752821 1.58575726 5.36274188 1.58575726 5.3586735 1.58719316 5.3541265 1.58982564L5.27275897 1.63122735C5.18301538 1.67741538 5.1109812 1.74418462 5.05689573 1.83177436 5.00352821 1.91960342 4.9769641 2.01461197 4.9769641 2.1153641 4.9769641 2.26302222 5.02889573 2.38866325 5.13251966 2.49276581 5.23638291 2.59567179 5.35963077 2.64712479 5.50202393 2.64712479L6.30349402 2.64712479C6.33675897 2.64712479 6.36523761 2.63539829 6.38916923 2.61170598 6.41286154 2.58777436 6.42482735 2.55929573 6.42482735 2.52579145L6.42482735 1.5656547C6.42482735 1.51731282 6.4418188 1.47615043 6.47604103 1.44216752 6.50978462 1.4079453 6.55070769 1.39071453 6.59833162 1.39071453 6.6466735 1.39071453 6.68759658 1.4079453 6.7218188 1.44216752 6.75604103 1.47615043 6.77303248 1.51731282 6.77303248 1.5656547L6.77303248 2.23645812C6.77303248 2.27091966 6.78499829 2.29939829 6.8086906 2.32237265 6.83238291 2.34606496 6.86086154 2.35779145 6.89436581 2.35779145L7.23156239 2.35779145 8.56694701 2.35779145 8.88284444 2.35779145C8.97426325 2.35779145 9.04892991 2.33170598 9.10684444 2.27881709 9.16978462 2.33170598 9.25665641 2.35779145 9.36722051 2.35779145L9.41292991 2.35779145 9.49070769 2.35779145 10.5996991 2.35779145C10.7332376 2.35779145 10.8373402 2.3202188 10.9124855 2.24459487 10.9873915 2.16968889 11.0249641 2.06534701 11.0249641 1.93180855L11.0249641 1.71259487C11.0249641 1.54411624 10.9785368 1.4079453 10.8856821 1.30408205 10.7930667 1.19997949 10.6712547 1.14828718 10.5207248 1.14828718L10.5207248 1.14828718z"/>
    <path fill="#0C2340" d="M10.3825769 1.20168803L10.7305769 1.20168803C10.7740769 1.20168803 10.7960769 1.18068803 10.7960769 1.13868803L10.7960769.769188034C10.7960769.725688034 10.7740769.704188034 10.7305769.704188034L10.3825769.704188034C10.3400769.704188034 10.3190769.725688034 10.3190769.769188034L10.3190769 1.13868803C10.3190769 1.18068803 10.3400769 1.20168803 10.3825769 1.20168803M12.0632615 2.11526838L11.7873299 2.11526838C11.7114667 2.11526838 11.646612 2.08822564 11.5925265 2.03414017 11.5382017 1.9800547 11.5109197 1.91496068 11.5109197 1.83933675L11.5109197 1.66774701C11.5109197 1.59164444 11.5382017 1.52655043 11.5925265 1.47318291 11.646612 1.41885812 11.7114667 1.3920547 11.7873299 1.3920547 11.8636718 1.3920547 11.9287658 1.41885812 11.981894 1.47318291 12.0362188 1.52655043 12.0632615 1.59164444 12.0632615 1.66774701L12.0632615 2.11526838zM13.9828171 1.19485812L13.8004581 1.19485812C13.7803556 1.19485812 13.7703043 1.2049094 13.7703043 1.22501197L13.7703043 2.03055043C13.7703043 2.0626188 13.7638427 2.08487521 13.7513983 2.09731966 13.7396718 2.10952479 13.7171761 2.11526838 13.6843897 2.11526838L13.3919453 2.11526838 12.522988 2.11526838 12.3071248 2.11526838 12.3071248 1.66774701C12.3071248 1.5246359 12.2561504 1.40258462 12.1546803 1.30207179 12.0527316 1.20012308 11.9302017 1.14914872 11.7873299 1.14914872 11.6439795 1.14914872 11.5216889 1.20012308 11.4206974 1.30207179 11.3194667 1.40258462 11.2684923 1.5246359 11.2684923 1.66774701L11.2684923 1.83933675C11.2684923 1.98244786 11.3194667 2.10473846 11.4206974 2.20668718 11.5216889 2.30743932 11.6439795 2.35817436 11.7873299 2.35817436L12.0632615 2.35817436C12.0591932 2.42159316 12.0343043 2.47639658 11.9876376 2.52162735 11.9390564 2.5666188 11.8837744 2.58935385 11.8203556 2.58935385L11.5458598 2.58935385C11.5257573 2.58935385 11.515706 2.59964444 11.515706 2.62046496L11.515706 2.80186667C11.515706 2.82268718 11.5257573 2.83321709 11.5458598 2.83321709L11.8203556 2.83321709C11.9495863 2.83321709 12.062065 2.78631111 12.1577915 2.69297778 12.2535179 2.59940513 12.3032957 2.48788376 12.3071248 2.35817436L12.522988 2.35817436 13.3919453 2.35817436 13.6843897 2.35817436C13.783706 2.35817436 13.8636376 2.32873846 13.923706 2.26986667 13.9830564 2.20931966 14.0127316 2.12962735 14.0127316 2.03055043L14.0127316 1.22501197C14.0127316 1.2049094 14.0026803 1.19485812 13.9828171 1.19485812L13.9828171 1.19485812zM14.0396137 2.57171624L13.6911137 2.57171624C13.6476137 2.57171624 13.6256137 2.59271624 13.6256137 2.63471624L13.6256137 3.00371624C13.6256137 3.04771624 13.6476137 3.06921624 13.6911137 3.06921624L14.0396137 3.06921624C14.0816137 3.06921624 14.1026137 3.04771624 14.1026137 3.00371624L14.1026137 2.63471624C14.1026137 2.59271624 14.0816137 2.57171624 14.0396137 2.57171624M14.6081639.403826765L14.3495096.403826765 14.3495096.25504241C14.3495096.231258055 14.3573107.211173488 14.3721815.19478871 14.387296.178139661 14.4060674.170475814 14.4280079.170475814 14.46165.170475814 14.4850532.187389133 14.4982175.222008583L14.5126008.258742198C14.5174764.270370105 14.5240586.275919788 14.5330786.275919788 14.5372229.275919788 14.5408797.275126976 14.5445364.273541353L14.6135272.242885962C14.6198655.240507526 14.6237661.234957843 14.6262039.227029725 14.6274228.223329936 14.6286417.220422959 14.6286417.216987441 14.6286417.213551924 14.6274228.210380676 14.6262039.207209429L14.6127958.170475814C14.5779348.0819451582 14.5160137.0378119658 14.4280079.0378119658 14.3716939.0378119658 14.3243999.0586893442 14.2851508.101236913 14.2456578.144048752 14.2261551.195317251 14.2261551.25504241L14.2261551.403826765 14.1569206.403826765C14.1400996.403826765 14.1320547.412811966 14.1320547.431046638L14.1320547.510592093C14.1320547.528826765 14.1400996.537811966 14.1569206.537811966L14.6081639.537811966C14.6237661.537811966 14.6320547.528826765 14.6320547.510592093L14.6320547.431046638C14.6320547.412811966 14.6237661.403826765 14.6081639.403826765M14.6946045.636389744L14.3214628.636389744C14.2783508.636389744 14.256547.646441026 14.256547.66654359L14.256547 2.32787692C14.256547 2.34774017 14.2783508 2.35779145 14.3214628 2.35779145L14.6946045 2.35779145C14.7362299 2.35779145 14.756547 2.34774017 14.756547 2.32787692L14.756547.66654359C14.756547.646441026 14.7362299.636389744 14.6946045.636389744M15.8982597 1.56062564L16.3494969 1.56062564C16.365266 1.56062564 16.3732718 1.55196422 16.3732718 1.53359152L16.3732718 1.45353903C16.3732718 1.43542879 16.365266 1.42624244 16.3494969 1.42624244L16.0911272 1.42624244 16.0911272 1.27899834C16.0911272 1.25511383 16.0986478 1.23490386 16.1136891 1.21758102 16.1289729 1.20130806 16.1469254 1.19343404 16.169002 1.19343404 16.2044217 1.19343404 16.2277114 1.21023194 16.240084 1.24435268L16.2546401 1.28241042C16.2590069 1.29290911 16.2662849 1.29815845 16.2762315 1.29815845 16.2798705 1.29815845 16.2842373 1.29737105 16.2883616 1.29579624L16.3562897 1.26508758C16.360414 1.26272538 16.3650234 1.25826344 16.3684198 1.25065189 16.3693902 1.24776475 16.3696328 1.24409021 16.3696328 1.2409406 16.3696328 1.23700359 16.3693902 1.23306659 16.3684198 1.22965451L16.3541063 1.19343404C16.3191718 1.10472013 16.2575513 1.06062564 16.169002 1.06062564 16.1134465 1.06062564 16.0656541 1.08136055 16.0265954 1.12361777 15.9877793 1.16666239 15.9683713 1.21863089 15.9683713 1.27899834L15.9683713 1.42624244 15.8982597 1.42624244C15.8817628 1.42624244 15.8732718 1.43542879 15.8732718 1.45353903L15.8732718 1.53359152C15.8732718 1.55196422 15.8817628 1.56062564 15.8982597 1.56062564M19.1225043 1.2006453L19.4735043 1.2006453C19.5150043 1.2006453 19.5360043 1.1796453 19.5360043 1.1376453L19.5360043.768145299C19.5360043.726145299 19.5150043.705145299 19.4735043.705145299L19.1225043.705145299C19.0805043.705145299 19.0595043.726145299 19.0595043.768145299L19.0595043 1.1376453C19.0595043 1.1796453 19.0805043 1.2006453 19.1225043 1.2006453"/>
    <path fill="#0C2340" d="M20.1579419 1.19492991L19.9753436 1.19492991C19.9554803 1.19492991 19.9454291 1.2049812 19.9454291 1.22508376L19.9454291 2.03086154C19.9454291 2.0626906 19.9392068 2.08494701 19.9265231 2.09763077 19.9145573 2.10935726 19.8927795 2.11534017 19.8597538 2.11534017L19.5780786 2.11534017 19.5003009 2.11534017 19.4048137 2.11534017C19.3526427 2.11534017 19.3191385 2.10744274 19.3045402 2.09092991 19.2976 2.08494701 19.2944889 2.07441709 19.2944889 2.05957949L19.2944889 1.22388718C19.2944889 1.20306667 19.2844376 1.19277607 19.2645744 1.19277607L19.0817368 1.19277607C19.0618735 1.19277607 19.0518222 1.20306667 19.0518222 1.22388718L19.0518222 2.02846838C19.0518222 2.06197265 19.0458393 2.08422906 19.0338735 2.09523761 19.0214291 2.10792137 19.0006085 2.11462222 18.9716513 2.11534017L17.1420786 2.11534017 17.0640615 2.11534017 16.9685744 2.11534017C16.9156855 2.11534017 16.8821812 2.10744274 16.8671043 2.09092991 16.8613607 2.08638291 16.8582496 2.07609231 16.8582496 2.05957949L16.8582496.666280342C16.8582496.646417094 16.8481983.636126496 16.8280957.636126496L16.6457368.636126496C16.6249162.636126496 16.6143863.646417094 16.6143863.666280342L16.6143863 2.02846838C16.6143863 2.0626906 16.6086427 2.08518632 16.5966769 2.09643419 16.5839932 2.10911795 16.5631726 2.11534017 16.5332581 2.11534017L15.7645744 2.11534017C15.6851214 2.11462222 15.6169162 2.08638291 15.5604376 2.03086154 15.5041983 1.97366496 15.4764376 1.90545983 15.4764376 1.82600684 15.4764376 1.77024615 15.4907966 1.71807521 15.5204718 1.66901538 15.550147 1.62091282 15.5898735 1.58405812 15.6396513 1.55892991L15.7210188 1.51657094C15.7327453 1.51058803 15.7387282 1.50292991 15.7387282 1.49311795 15.7387282 1.48809231 15.7372923 1.48258803 15.7346598 1.47660513L15.6518564 1.3141094C15.6473094 1.30597265 15.6415658 1.30070769 15.6343863 1.29855385 15.6310359 1.29687863 15.6276855 1.29616068 15.624335 1.29616068 15.6195487 1.29616068 15.6154803 1.2978359 15.610694 1.30070769L15.5283692 1.34187009C15.4386256 1.3878188 15.3670701 1.45458803 15.3134632 1.54217778 15.260335 1.62976752 15.2335316 1.72429744 15.2335316 1.82600684 15.2335316 1.97366496 15.2857026 2.09930598 15.3890872 2.20316923 15.4931897 2.30655385 15.6181128 2.35776752 15.7645744 2.35776752L16.5299077 2.35776752C16.6227624 2.35776752 16.6983863 2.33120342 16.7570188 2.2778359 16.819959 2.33120342 16.9073094 2.35776752 17.0185915 2.35776752L17.0640615 2.35776752 17.1420786 2.35776752 18.9592068 2.35776752 18.9671043 2.35776752C19.059959 2.35776752 19.1358222 2.33120342 19.1944547 2.2778359 19.2571556 2.33120342 19.3442667 2.35776752 19.4548308 2.35776752L19.5003009 2.35776752 19.5780786 2.35776752 19.8597538 2.35776752C19.9590701 2.35776752 20.0390017 2.32857094 20.0990701 2.26993846 20.1584205 2.20915214 20.1878564 2.12945983 20.1878564 2.03086154L20.1878564 1.22508376C20.1878564 1.2049812 20.1780444 1.19492991 20.1579419 1.19492991M1.0327453.636389744L.85134359.636389744C.830523077.636389744.819993162.646441026.819993162.66654359L.819993162 2.22760342C.819993162 2.30777436.791993162 2.3762188.73551453 2.43269744.678796581 2.48869744.611070085 2.51693675.53185641 2.51693675.452642735 2.51693675.384676923 2.48869744.328198291 2.43269744.271001709 2.3762188.242523077 2.30777436.242523077 2.22760342L.242523077 1.6525265C.242523077 1.63146667.232950427 1.62093675.213805128 1.62093675L.0309675214 1.62093675C.0103863248 1.62093675.0000957264957 1.63146667.0000957264957 1.6525265L.0000957264957 2.22760342C.0000957264957 2.37478291.0515487179 2.50018462.155890598 2.60404786.259753846 2.70767179.385155556 2.75984274.53185641 2.75984274.678078632 2.75984274.803480342 2.70767179.908061538 2.60404786 1.01192479 2.50018462 1.06385641 2.37478291 1.06385641 2.22760342L1.06385641.66654359C1.06385641.646441026 1.05356581.636389744 1.0327453.636389744M20.2146427 2.57171624L19.8666427 2.57171624C19.8226427 2.57171624 19.8006427 2.59271624 19.8006427 2.63471624L19.8006427 3.00371624C19.8006427 3.04771624 19.8226427 3.06921624 19.8666427 3.06921624L20.2146427 3.06921624C20.2561427 3.06921624 20.2776427 3.04771624 20.2776427 3.00371624L20.2776427 2.63471624C20.2776427 2.59271624 20.2561427 2.57171624 20.2146427 2.57171624"/>
  </g>
</svg>
