<svg xmlns="http://www.w3.org/2000/svg" width="30" height="30" viewBox="0 0 30 30">
  <path fill="#B8B8B8" d="M20.9491047,7 C21.8615337,7 22.605972,7.76670144 22.605972,8.70641755 L22.605,10.339 L25.068202,10.3390658 C26.0768009,10.3390658 26.9164568,11.1205426 26.9941369,12.1168747 L27,12.2678651 L27,21.0709781 C27,22.0873938 26.2083553,22.9174593 25.2181482,22.9942084 L25.068202,23 L10.6955082,23 C9.68692756,23 8.84725521,22.2183353 8.76957345,21.2219719 L8.76371025,21.0709781 L8.763,19.957 L4.77812207,19.9576659 C3.79896681,19.9576659 3,19.1347085 3,18.1263673 L3,8.70641755 C3,7.76668968 3.74423352,7 4.65665112,7 L20.9491047,7 Z M25.982,15.873 L22.605,15.873 L22.605972,18.2512483 C22.605972,19.1909644 21.8615337,19.9576659 20.9491047,19.9576659 L9.781,19.957 L9.78160054,21.0709781 C9.78160054,21.5123402 10.1289796,21.8892909 10.5805781,21.9446717 L10.6955082,21.9516687 L25.068202,21.9516687 C25.5354818,21.9516687 25.9188055,21.6086689 25.9750134,21.1798279 L25.9821097,21.0709781 L25.982,15.873 Z M20.9491047,8.04833133 L4.65665112,8.04833133 C4.30645799,8.04833133 4.01789029,8.34560614 4.01789029,8.70641755 L4.01789029,18.1263673 C4.01789029,18.5557587 4.36115886,18.9093346 4.77812207,18.9093346 L20.9491047,18.9093346 C21.2993685,18.9093346 21.5880817,18.611987 21.5880817,18.2512483 L21.5880817,8.70641755 C21.5880817,8.34567884 21.2993685,8.04833133 20.9491047,8.04833133 Z M19.7193735,16.1728546 C19.8599148,16.1728546 19.973846,16.3967122 19.973846,16.6728546 C19.973846,16.9144792 19.8866174,17.1160732 19.7706586,17.1626964 L19.7193735,17.1728546 L6.21059314,17.1728546 C6.07005182,17.1728546 5.95612057,16.9489969 5.95612057,16.6728546 C5.95612057,16.43123 6.04334918,16.2296359 6.15930804,16.1830128 L6.21059314,16.1728546 L19.7193735,16.1728546 Z M13.2351589,14.0761919 C13.3757002,14.0761919 13.4896315,14.3000495 13.4896315,14.5761919 C13.4896315,14.8178165 13.4024029,15.0194106 13.286444,15.0660337 L13.2351589,15.0761919 L6.42673362,15.0761919 C6.2861923,15.0761919 6.17226105,14.8523343 6.17226105,14.5761919 C6.17226105,14.3345673 6.25948967,14.1329733 6.37544852,14.0863501 L6.42673362,14.0761919 L13.2351589,14.0761919 Z M18.1793725,9.23769674 C19.1555129,9.23769674 19.9468285,10.0526774 19.9468285,11.0580103 C19.9468285,12.0633432 19.1555129,12.8783238 18.1793725,12.8783238 C17.7210746,12.8783238 17.3035176,12.6986774 16.9894686,12.4040287 C16.677134,12.6989131 16.2598244,12.8783238 15.8018272,12.8783238 C14.8256867,12.8783238 14.0343712,12.0633432 14.0343712,11.0580103 C14.0343712,10.0526774 14.8256867,9.23769674 15.8018272,9.23769674 C16.2598244,9.23769674 16.677134,9.41710744 16.9911127,9.71141196 C17.3035176,9.41734312 17.7210746,9.23769674 18.1793725,9.23769674 Z M25.068202,11.3873971 L22.605,11.387 L22.605,12.616 L25.982,12.616 L25.9821097,12.2678651 C25.9821097,11.8265667 25.6347873,11.4497518 25.1831453,11.3943915 L25.068202,11.3873971 Z M15.8018272,9.7618624 C15.1067694,9.7618624 14.5433163,10.3421661 14.5433163,11.0580103 C14.5433163,11.7738545 15.1067694,12.3541581 15.8018272,12.3541581 C16.1371535,12.3541581 16.4418486,12.2190913 16.6674202,11.9988999 C16.5048094,11.724565 16.4119165,11.4024604 16.4119165,11.0580103 C16.4119165,10.7135601 16.5048094,10.3914556 16.6662018,10.1168195 C16.4418486,9.89692926 16.1371535,9.7618624 15.8018272,9.7618624 Z M18.1793725,9.7618624 C17.8440462,9.7618624 17.5393511,9.89692926 17.3137795,10.1171206 C17.4763902,10.3914556 17.5692831,10.7135601 17.5692831,11.0580103 C17.5692831,11.4024604 17.4763902,11.724565 17.3149978,11.999201 C17.5393511,12.2190913 17.8440462,12.3541581 18.1793725,12.3541581 C18.8744303,12.3541581 19.4378833,11.7738545 19.4378833,11.0580103 C19.4378833,10.3421661 18.8744303,9.7618624 18.1793725,9.7618624 Z M16.9917815,10.6349685 L16.9774417,10.672575 C16.9406706,10.7943338 16.9208617,10.9237895 16.9208617,11.0580103 C16.9208617,11.2061419 16.9449894,11.3484695 16.9894182,11.481052 C17.0362103,11.3484695 17.060338,11.2061419 17.060338,11.0580103 C17.060338,10.9098786 17.0362103,10.767551 16.9917815,10.6349685 Z"/>
</svg>
