<svg xmlns="http://www.w3.org/2000/svg" width="30" height="30" viewBox="0 0 30 30">
  <path fill="#B8B8B8" d="M10.672,8 L18.672,8 C18.8458627,8 19.0115072,8.06729523 19.1355077,8.18542677 L19.2046434,8.26227438 L21.2046434,10.8622744 C21.2090158,10.8679585 21.2132913,10.8737048 21.2174691,10.8795108 C21.2305857,10.8976015 21.2429685,10.9167226 21.2543748,10.9364783 L21.2706507,10.9667091 L21.2706507,10.9667091 C21.2815068,10.9876625 21.2910686,11.0090763 21.2995099,11.0310458 L21.3114639,11.0654327 L21.3114639,11.0654327 C21.3255999,11.108871 21.3353484,11.1541867 21.3402767,11.2009124 L21.3440001,11.272 L21.3440001,20.372 C21.3440001,21.4152863 20.5225257,22.2636459 19.4878606,22.338614 L19.3386667,22.3440001 L10.0053334,22.3440001 C8.95174369,22.3440001 8.0823789,21.5430626 8.00552258,20.5196524 L8,20.372 L8,11.272 L8.00728621,11.1726968 C8.01273308,11.1359228 8.02115904,11.1001198 8.03231088,11.065541 C8.03629352,11.0538014 8.04036776,11.0422737 8.04475446,11.0308628 C8.05293145,11.0090763 8.06249324,10.9876625 8.07310557,10.9668744 L8.095,10.927 L8.127,10.879 L8.13935668,10.8622744 L8.13935668,10.8622744 L10.1393567,8.26227438 C10.2453626,8.12446667 10.3996977,8.03420349 10.568936,8.00794376 L10.672,8 L18.672,8 Z M19.999,11.944 L9.344,11.944 L9.34400005,20.372 C9.34400005,20.6837944 9.58559888,20.9476981 9.90676014,20.9931038 L10.0053334,21 L19.3386667,21 C19.6741201,21 19.9462147,20.7644411 19.9929141,20.463931 L20,20.372 L19.999,11.944 Z M17.3386667,13.2 C17.7098021,13.2 18.0106667,13.5008647 18.0106667,13.872 C18.0106667,15.6829368 16.5121403,17.1440001 14.672,17.1440001 C12.8318598,17.1440001 11.3333333,15.6829368 11.3333333,13.872 C11.3333333,13.5008647 11.634198,13.2 12.0053334,13.2 C12.3764687,13.2 12.6773334,13.5008647 12.6773334,13.872 C12.6773334,14.932944 13.5666216,15.8 14.672,15.8 C15.7773784,15.8 16.6666667,14.932944 16.6666667,13.872 C16.6666667,13.5008647 16.9675313,13.2 17.3386667,13.2 Z M8.10382731,10.9131342 L8.095,10.927 L8.08962523,10.9364783 L8.10382731,10.9131342 L8.10382731,10.9131342 Z M8.133,10.87 L8.127,10.879 L8.107,10.907 L8.12670745,10.879181 L8.12670745,10.879181 L8.133,10.87 Z M18.3411062,9.34400005 L11.0028938,9.34400005 L10.036,10.6 L19.307,10.6 L18.3411062,9.34400005 Z"/>
</svg>
