<svg xmlns="http://www.w3.org/2000/svg" width="30" height="30" viewBox="0 0 30 30">
  <path fill="#B8B8B8" d="M18.5293164,6 C18.7540632,6 18.9507365,6.14493591 19.0086665,6.35325092 L21.003,13.525 L24.4109315,13.5252508 C24.635664,13.5252508 24.8323286,13.6701686 24.8902717,13.878466 L26.9829551,21.4013688 C27.0670077,21.7035262 26.8296131,22 26.5036149,22 L15.2618666,22 C15.1645716,22 15.0751673,21.9735913 14.9998454,21.928504 C14.9256448,21.9733507 14.8358701,22 14.7381329,22 L3.49638461,22 C3.17044625,22 2.93306176,21.7036282 3.01700719,21.4015028 L5.10724298,13.8786 C5.16513668,13.6702365 5.36183418,13.5252508 5.5866204,13.5252508 L8.996,13.525 L10.9911372,6.35325092 C11.0490671,6.14493591 11.2457405,6 11.4704873,6 L18.5293164,6 Z M12.2666976,14.4770972 L5.96781989,14.4770972 L4.14205426,21.0481536 L14.0924632,21.0481536 L12.2666976,14.4770972 Z M24.029847,14.4770972 L17.7333019,14.4770972 L15.9075363,21.0481536 L25.8577505,21.0481536 L24.029847,14.4770972 Z M16.706,14.477 L13.293,14.477 L15,20.618 L16.706,14.477 Z M18.1482012,6.9518464 L11.8516025,6.9518464 L10.0236164,13.5252508 L19.9761873,13.5252508 L18.1482012,6.9518464 Z"/>
</svg>
