<svg xmlns="http://www.w3.org/2000/svg" width="30" height="30" viewBox="0 0 30 30">
  <path fill="#B8B8B8" d="M7.50673445,20.1474067 L9.61427,18.3850118 C10.0697172,18.0039977 10.7288047,17.9968435 11.1919748,18.3684549 L12.458122,19.3833343 C12.458122,19.3833343 13.231427,20.7117737 17.0327138,16.629158 C20.5765034,13.1945117 19.6101262,12.4817454 19.6101262,12.4817454 L18.5549358,11.3863298 C18.0220565,10.8332051 17.999091,9.96181924 18.5022982,9.3808953 L20.1659709,7.45967643 C20.6685683,6.87916131 21.5530423,6.84339013 22.1003511,7.38138865 L23.3002441,8.56061109 C23.698989,8.9526632 23.9505926,9.21532585 23.9936782,10.070768 C24.036967,10.926619 23.9975396,14.3608565 19.0300966,19.4804275 C15.5247183,23.0931121 10.7442505,24.7941849 8.67471968,23.6437838 C7.63538151,22.7897725 7.30939434,22.119114 7.30939434,22.119114 C6.8295591,21.5177494 6.91735614,20.6404357 7.50673445,20.1474067 Z"/>
</svg>
