<svg xmlns="http://www.w3.org/2000/svg" width="30" height="30" viewBox="0 0 30 30">
  <path fill="#B8B8B8" d="M12.5995736,-8.17124146e-14 L12.7025683,0.0684 C12.9752984,0.248477778 13.1194911,0.529044444 13.1194911,0.879911111 C13.1194911,1.65553333 12.4370479,2.53058889 11.4138981,3.11705556 C11.9313437,3.18925556 12.3326112,3.63997778 12.3326112,4.18971111 L12.3326112,4.18971111 L12.3326112,4.47998889 C12.3326112,4.61108889 12.3062446,4.73501111 12.2646347,4.85154444 C15.059912,6.365 16.9082557,9.62033333 16.9082557,12.6170556 C16.9082557,13.1002889 16.86335,13.5575556 16.7753925,13.9886444 L16.7753925,13.9886444 L16.8485188,13.9886444 C17.4833784,13.9886444 18,14.5936889 18,15.3376444 C18,15.8286889 17.7740295,16.2585111 17.4380607,16.4943222 C17.7740295,16.7301333 18,17.1597444 18,17.651 C18,18.3947444 17.4833784,19 16.8485188,19 L16.8485188,19 L12.1546363,19 C11.8182555,19 11.5160689,18.829 11.3055476,18.5585667 C11.1337524,18.5879111 10.9592793,18.6147222 10.7802744,18.6373111 C10.5744909,18.8615111 10.299907,19 9.99751439,19 L9.99751439,19 L5.30342595,19 C4.72129966,19 4.24010821,18.4910111 4.1638921,17.8331889 C2.07598266,16.8354778 0.941186568,15.0501111 0.941186568,12.6166333 C0.941186568,9.61991111 2.78953024,6.36457778 5.58501358,4.85112222 C5.5434037,4.73458889 5.51703705,4.61066667 5.51703705,4.47956667 L5.51703705,4.47956667 L5.51703705,4.18928889 C5.51703705,3.63976667 5.91851056,3.18883333 6.43575016,3.11663333 C5.41239439,2.53016667 4.7301572,1.65511111 4.7301572,0.879488889 C4.7301572,0.528622222 4.87434985,0.248055556 5.14707993,0.0679777778 L5.14707993,0.0679777778 L5.25028066,-8.17124146e-14 L12.5995736,-8.17124146e-14 Z M16.8485188,17.1567889 L12.1546363,17.1567889 C12.004882,17.1567889 11.8374125,17.3681111 11.8374125,17.651 C11.8374125,17.9338889 12.004882,18.1452111 12.1546363,18.1452111 L12.1546363,18.1452111 L16.8485188,18.1452111 C16.9984791,18.1452111 17.1657426,17.9338889 17.1657426,17.651 C17.1657426,17.3681111 16.9984791,17.1567889 16.8485188,17.1567889 L16.8485188,17.1567889 Z M9.99751439,17.1567889 L5.30342595,17.1567889 C5.15367159,17.1567889 4.98620214,17.3681111 4.98620214,17.651 C4.98620214,17.9338889 5.15367159,18.1452111 5.30342595,18.1452111 L5.30342595,18.1452111 L9.99751439,18.1452111 C10.1470628,18.1452111 10.3147382,17.9338889 10.3147382,17.651 C10.3147382,17.3681111 10.1472688,17.1567889 9.99751439,17.1567889 L9.99751439,17.1567889 Z M11.0760754,15.8048333 C10.984204,16.0946889 10.8103489,16.3372556 10.5868503,16.4941111 C10.8103489,16.6509667 10.984204,16.8935333 11.0760754,17.1833889 C11.1679467,16.8937444 11.3418018,16.6509667 11.5653004,16.4941111 C11.3418018,16.3372556 11.1679467,16.0946889 11.0760754,15.8048333 Z M11.6617035,5.48867778 C11.5405816,5.53807778 11.4095723,5.56721111 11.2715594,5.56721111 L11.2715594,5.56721111 L6.57829489,5.56721111 C6.44028193,5.56721111 6.30927262,5.53807778 6.1881508,5.48867778 C3.54324578,6.78701111 1.77544399,9.82658889 1.77564998,12.6166333 C1.77564998,14.8850222 2.91024008,16.1884222 4.3305376,16.9328 C4.42714667,16.7535667 4.55877395,16.6032556 4.71409002,16.4941111 C4.37812117,16.2580889 4.1521507,15.8286889 4.1521507,15.3374333 C4.1521507,14.8461778 4.37812117,14.4165667 4.71409002,14.1807556 C4.37812117,13.9449444 4.1521507,13.5153333 4.1521507,13.0240778 C4.1521507,12.5288111 4.38182898,12.0960333 4.7223296,11.8614889 C4.38018106,11.6372889 4.1521507,11.2454667 4.1521507,10.7993889 L4.1521507,10.7993889 L4.1521507,10.6218444 C4.1521507,9.92686667 4.70358456,9.36151111 5.38170195,9.36151111 L5.38170195,9.36151111 L9.91923839,9.36151111 C10.5971498,9.36151111 11.1487896,9.92686667 11.1487896,10.6218444 L11.1487896,10.6218444 L11.1487896,10.7993889 C11.1487896,11.2456778 10.9207593,11.6375 10.5786107,11.8614889 C10.9191114,12.0960333 11.1487896,12.5288111 11.1487896,13.0240778 C11.1487896,13.5153333 10.9228192,13.9449444 10.5868503,14.1807556 C10.8103489,14.3376111 10.984204,14.5801778 11.0760754,14.8700333 C11.238807,14.3561889 11.6602615,13.9884333 12.1546363,13.9884333 L12.1546363,13.9884333 L15.9125025,13.9884333 C16.0154973,13.5750778 16.0744103,13.1211889 16.0744103,12.6168444 C16.0744103,9.82658889 14.3066085,6.78701111 11.6617035,5.48867778 Z M16.8485188,14.8432222 L12.1546363,14.8432222 C12.004882,14.8432222 11.8374125,15.0545444 11.8374125,15.3374333 C11.8374125,15.6203222 12.004882,15.8316444 12.1546363,15.8316444 L12.1546363,15.8316444 L16.8485188,15.8316444 C16.9984791,15.8316444 17.1657426,15.6203222 17.1657426,15.3374333 C17.1657426,15.0545444 16.9984791,14.8432222 16.8485188,14.8432222 L16.8485188,14.8432222 Z M9.99751439,14.8432222 L5.30342595,14.8432222 C5.15367159,14.8432222 4.98620214,15.0545444 4.98620214,15.3374333 C4.98620214,15.6203222 5.15367159,15.8316444 5.30342595,15.8316444 L5.30342595,15.8316444 L9.99751439,15.8316444 C10.1470628,15.8316444 10.3147382,15.6203222 10.3147382,15.3374333 C10.3147382,15.0545444 10.1472688,14.8432222 9.99751439,14.8432222 L9.99751439,14.8432222 Z M9.99751439,12.5296556 L5.30342595,12.5296556 C5.15367159,12.5296556 4.98620214,12.7409778 4.98620214,13.0238667 C4.98620214,13.3067556 5.15367159,13.5180778 5.30342595,13.5180778 L5.30342595,13.5180778 L9.99751439,13.5180778 C10.1470628,13.5180778 10.3147382,13.3067556 10.3147382,13.0238667 C10.3147382,12.7409778 10.1472688,12.5296556 9.99751439,12.5296556 L9.99751439,12.5296556 Z M9.91923839,10.2165111 L5.38170195,10.2165111 C5.16355909,10.2165111 4.98620214,10.3982778 4.98620214,10.6218444 L4.98620214,10.6218444 L4.98620214,10.7993889 C4.98620214,11.0227444 5.16355909,11.2047222 5.38170195,11.2047222 L5.38170195,11.2047222 L9.91923839,11.2047222 C10.1373813,11.2047222 10.3147382,11.0229556 10.3147382,10.7993889 L10.3147382,10.7993889 L10.3147382,10.6218444 C10.3147382,10.3984889 10.1373813,10.2165111 9.91923839,10.2165111 L9.91923839,10.2165111 Z M2.71102765,3.8076 L2.71102765,4.87624444 L1.66830886,4.87624444 L1.66830886,3.8076 L2.71102765,3.8076 Z M11.2715594,3.95664444 L6.57829489,3.95664444 C6.45531916,3.95664444 6.35129447,4.06325556 6.35129447,4.18928889 L6.35129447,4.18928889 L6.35129447,4.47956667 C6.35129447,4.6056 6.45531916,4.71221111 6.57829489,4.71221111 L6.57829489,4.71221111 L11.2715594,4.71221111 C11.3945351,4.71221111 11.4985598,4.6056 11.4985598,4.47956667 L11.4985598,4.47956667 L11.4985598,4.18928889 C11.4985598,4.06325556 11.3945351,3.95664444 11.2715594,3.95664444 L11.2715594,3.95664444 Z M4.37933651,2.09802222 L4.37933651,3.16666667 L3.33661772,3.16666667 L3.33661772,2.09802222 L4.37933651,2.09802222 Z M1.04271879,2.09802222 L1.04271879,3.16666667 L9.76996262e-14,3.16666667 L9.76996262e-14,2.09802222 L1.04271879,2.09802222 Z M2.71102765,2.09802222 L2.71102765,3.16666667 L1.66830886,3.16666667 L1.66830886,2.09802222 L2.71102765,2.09802222 Z M12.2848217,0.854788889 L5.56482661,0.854788889 L5.56482661,0.854788889 L5.56420864,0.879488889 C5.56420864,1.56454444 7.01684651,2.93338889 8.92472114,2.93338889 C10.8325958,2.93338889 12.2854396,1.56454444 12.2854396,0.879488889 C12.2854396,0.8702 12.2852336,0.861966667 12.2848217,0.854788889 L12.2848217,0.854788889 Z M2.71102765,0.388233333 L2.71102765,1.45687778 L1.66830886,1.45687778 L1.66830886,0.388233333 L2.71102765,0.388233333 Z" transform="translate(6 5.5)"/>
</svg>
