<svg xmlns="http://www.w3.org/2000/svg" width="30" height="30" viewBox="0 0 30 30">
  <path fill="#B8B8B8" d="M20.682524,6.73653055 L20.6861942,6.90729698 L20.686,9.333 L20.9647139,9.3330555 C22.5249282,9.3330555 23.8327192,10.4131403 23.9274524,11.7972058 L23.9329451,11.9582105 L23.932,12.834 L24.7579456,12.8342749 C25.3984342,12.8342749 25.929656,13.3171987 25.9935569,13.9306019 L26,14.0549179 L26,18.6337509 C26,19.0682784 25.6662302,19.4295257 25.2383202,19.4825311 L25.1295201,19.4892247 L23.932,19.489 L23.9329451,20.374845 C23.9329451,21.7811455 22.6829398,22.9133155 21.1435637,22.9952509 L20.9647139,23 L7.08820004,23 C5.52813779,23 4.22020596,21.9198589 4.12546212,20.5358435 L4.11996879,20.374845 L4.11979442,14.4976998 C4.06373334,14.4323659 4.02437952,14.3527333 4.00820643,14.265164 L4,14.1751847 L4,11.0197147 C4,9.68709496 4.76430583,9.02840693 6.62688565,8.37872156 L6.86545246,8.29750968 L17.5435497,5.21038515 C19.5850818,4.66576618 20.6139922,5.17993324 20.682524,6.73653055 Z M20.9647139,10.3342085 L7.08820004,10.3342085 C6.05787929,10.3342085 5.22572894,11.0086828 5.14508971,11.8277584 L5.13868312,11.9582105 L5.13868312,20.374845 C5.13868312,21.207674 5.91931743,21.9237897 6.92724533,21.9933192 L7.08820004,21.998847 L20.9647139,21.998847 C21.9951728,21.998847 22.8271988,21.3244423 22.9078253,20.5053076 L22.9142308,20.374845 L22.914,19.489 L16.389995,19.4892247 C15.140677,19.4892247 14.1086566,18.5265705 14.0248238,17.3185513 L14.0193264,17.159651 L14.0193264,15.1640762 C14.0193264,13.9360768 14.9992919,12.9220469 16.2283328,12.8396764 L16.389995,12.8342749 L22.914,12.834 L22.9142308,11.9582105 C22.9142308,11.1253082 22.1337278,10.4092585 21.1256883,10.3397357 L20.9647139,10.3342085 Z M25.0476898,13.8029445 L16.3170053,13.8029445 C15.6627927,13.8029445 15.1227956,14.3126205 15.0578515,14.9630424 L15.0513036,15.0948941 L15.0513036,17.2574302 C15.0513036,17.9249786 15.5504124,18.4761596 16.1877925,18.5424496 L16.3170053,18.5491332 L25.1358542,18.5491332 L25.1358542,13.8929372 C25.1358542,13.8468314 25.0928589,13.8029445 25.0476898,13.8029445 Z M18.3248217,14.8913939 C18.9455016,14.8913939 19.4485741,15.3857941 19.4485741,15.9957742 C19.4485741,16.6057544 18.9455016,17.1001546 18.3248217,17.1001546 C17.7041418,17.1001546 17.2008377,16.6057544 17.2008377,15.9957742 C17.2008377,15.3857941 17.7041418,14.8913939 18.3248217,14.8913939 Z M17.9968529,6.12807651 L17.8207417,6.17370599 L7.17257945,9.25186584 C7.08577862,9.28075249 7.00213696,9.30924351 6.92156299,9.33742047 L7.08820004,9.3330555 L19.667,9.333 L19.6674799,6.90729698 C19.6674799,5.99269786 19.3612196,5.78582875 17.9968529,6.12807651 Z"/>
</svg>
