<svg xmlns="http://www.w3.org/2000/svg" width="30" height="30" viewBox="0 0 30 30">
  <path fill="#FFF" d="M20.2531827,16 C20.9039275,16 21.245899,16.771983 20.8086505,17.25394 L20.8086505,17.25394 L17.4463058,20.9600836 C17.1679874,21.26686 16.6936743,21.2899297 16.386898,21.0116113 C16.0801216,20.7332929 16.0570518,20.2589799 16.3353702,19.9522035 L16.3353702,19.9522035 L18.5600961,17.5 L9.75,17.5 C9.33578644,17.5 9,17.1642136 9,16.75 C9,16.3357864 9.33578644,16 9.75,16 L9.75,16 Z M12.5583523,9.24606548 C12.8366707,8.9392891 13.3109837,8.91621935 13.6177601,9.19453775 C13.9245365,9.47285615 13.9476062,9.94716918 13.6692878,10.2539456 L13.6692878,10.2539456 L11.4445619,12.7061491 L20.2546581,12.7061491 C20.6688716,12.7061491 21.0046581,13.0419355 21.0046581,13.4561491 C21.0046581,13.8703626 20.6688716,14.2061491 20.2546581,14.2061491 L20.2546581,14.2061491 L9.75147534,14.2061491 C9.10073053,14.2061491 8.75875909,13.4341661 9.19600757,12.952209 L9.19600757,12.952209 Z"/>
</svg>
