<svg xmlns="http://www.w3.org/2000/svg" width="30" height="30" viewBox="0 0 30 30">
  <path fill="#FFF" d="M18.3722231,5.50005684 C18.7120692,5.50005684 18.9876077,5.79082179 18.9876077,6.14962949 L18.9876077,6.14962949 L18.9876077,15.5651038 C20.1336077,15.8580611 20.9876077,16.9493432 20.9876077,18.2479201 C20.9876077,19.5464158 20.1336077,20.6376979 18.9876077,20.9306551 L18.9876077,20.9306551 L18.9876077,23.8504842 C18.9876077,24.2092107 18.7120692,24.5000568 18.3722231,24.5000568 C18.0323,24.5000568 17.7568385,24.2092107 17.7568385,23.8504842 L17.7568385,23.8504842 L17.7568385,20.9306551 C16.6107615,20.6376979 15.7568385,19.5464158 15.7568385,18.2479201 C15.7568385,16.9493432 16.6107615,15.8580611 17.7568385,15.5651038 L17.7568385,15.5651038 L17.7568385,6.14962949 C17.7568385,5.79082179 18.0323,5.50005684 18.3722231,5.50005684 Z M11.6153846,5.5 C11.9552308,5.5 12.2307692,5.79084615 12.2307692,6.14957265 L12.2307692,6.14957265 L12.2307692,9.38265812 C13.3768462,9.67561538 14.2307692,10.7668974 14.2307692,12.0654744 C14.2307692,13.3638889 13.3768462,14.4552521 12.2307692,14.7482094 L12.2307692,14.7482094 L12.2307692,23.8504274 C12.2307692,24.2091538 11.9552308,24.5 11.6153846,24.5 C11.2755385,24.5 11,24.2091538 11,23.8504274 L11,23.8504274 L11,14.7482094 C9.85392308,14.4552521 9,13.3638889 9,12.0654744 C9,10.7668974 9.85392308,9.67561538 11,9.38265812 L11,9.38265812 L11,6.14957265 C11,5.79084615 11.2755385,5.5 11.6153846,5.5 Z M18.3722231,16.7863816 C18.3300692,16.7863816 18.2885308,16.7891423 18.2473,16.7930397 C18.2383769,16.7938517 18.2293769,16.7945825 18.2203769,16.7955568 C18.1843769,16.7997791 18.1489154,16.8057876 18.1137615,16.8128517 C18.0983,16.8159372 18.0830692,16.8193474 18.0679923,16.8230825 C18.0451462,16.8285226 18.0226077,16.834856 18.0002231,16.8414329 C17.9710692,16.8502021 17.9423,16.8597021 17.9139923,16.8703389 L17.9139923,16.8703389 L17.8870692,16.8807321 C17.8426077,16.8985141 17.7990692,16.9183261 17.7568385,16.9405739 C17.3016846,17.1802662 16.9876077,17.6754842 16.9876077,18.2479201 C16.9876077,18.8202748 17.3016846,19.3154927 17.7568385,19.555185 C17.7990692,19.5774329 17.8426077,19.5972449 17.8870692,19.6150269 L17.8870692,19.6150269 L17.9139923,19.6254201 C17.9423,19.6360568 17.9710692,19.6455568 18.0002231,19.6543261 C18.0226077,19.660903 18.0451462,19.6673175 18.0679923,19.6726765 L18.0679923,19.6726765 L18.1137615,19.6829073 C18.1489154,19.6899714 18.1843769,19.6960611 18.2203769,19.7001209 C18.2293769,19.7012577 18.2383769,19.7019073 18.2473,19.7028004 C18.2885308,19.7066167 18.3300692,19.7094585 18.3722231,19.7094585 C18.4143769,19.7094585 18.4559154,19.7066167 18.4970692,19.7028004 L18.4970692,19.7028004 L18.5239923,19.7001209 C18.5599923,19.6960611 18.5955308,19.6899714 18.6306846,19.6829073 L18.6306846,19.6829073 L18.6764538,19.6726765 L18.6764538,19.6726765 L18.7442231,19.6543261 C18.7733,19.6455568 18.8021462,19.6360568 18.8304538,19.6254201 C18.8394538,19.6220098 18.8483769,19.6185184 18.8573769,19.6150269 C18.9018385,19.5972449 18.9453769,19.5774329 18.9876077,19.555185 C19.4426846,19.3154927 19.7568385,18.8202748 19.7568385,18.2479201 C19.7568385,17.6754842 19.4426846,17.1802662 18.9876077,16.9405739 C18.9453769,16.9183261 18.9018385,16.8985141 18.8573769,16.8807321 C18.8483769,16.8772406 18.8394538,16.8736679 18.8304538,16.8703389 C18.8021462,16.8597021 18.7733,16.8502021 18.7442231,16.8414329 C18.7217615,16.834856 18.6993,16.8285226 18.6764538,16.8230825 C18.6613,16.8193474 18.6460692,16.8159372 18.6306846,16.8128517 C18.5955308,16.8057876 18.5599923,16.7997791 18.5239923,16.7955568 L18.5239923,16.7955568 L18.4970692,16.7930397 C18.4559154,16.7891423 18.4143769,16.7863816 18.3722231,16.7863816 Z M11.6153846,10.6039359 C11.5732308,10.6039359 11.5316923,10.6066966 11.4904615,10.610594 C11.4815385,10.611406 11.4725385,10.6121368 11.4635385,10.6131111 C11.4275385,10.6173333 11.3920769,10.6233419 11.3569231,10.630406 C11.3415385,10.6334915 11.3263077,10.6369017 11.3111538,10.6406368 L11.3111538,10.6406368 L11.2433846,10.6589872 C11.2142308,10.6677564 11.1854615,10.6772564 11.1571538,10.6878932 C11.1481538,10.6912222 11.1392308,10.6947949 11.1302308,10.6982863 C11.0857692,10.7161496 11.0422308,10.7358803 11,10.7581282 C10.5448462,10.9978205 10.2307692,11.4930385 10.2307692,12.0654744 C10.2307692,12.6378291 10.5448462,13.133047 11,13.3727393 C11.0422308,13.3949872 11.0857692,13.4147991 11.1302308,13.4325812 C11.1392308,13.4361538 11.1481538,13.4396453 11.1571538,13.4429744 C11.1854615,13.4536111 11.2142308,13.4631923 11.2433846,13.4717991 C11.2657692,13.4784573 11.2883077,13.4848718 11.3111538,13.490312 C11.3263077,13.4939658 11.3415385,13.4973761 11.3569231,13.5004615 C11.3920769,13.5075256 11.4275385,13.5136154 11.4635385,13.5177564 C11.4725385,13.518812 11.4815385,13.5194615 11.4904615,13.5203547 C11.5316923,13.5241709 11.5732308,13.5270128 11.6153846,13.5270128 C11.6575385,13.5270128 11.6990769,13.5241709 11.7403077,13.5203547 C11.7492308,13.5194615 11.7582308,13.518812 11.7672308,13.5177564 C11.8032308,13.5136154 11.8386923,13.5075256 11.8738462,13.5004615 L11.8738462,13.5004615 L11.9196154,13.490312 C11.9424615,13.4848718 11.965,13.4784573 11.9873846,13.4717991 C12.0165385,13.4631923 12.0453077,13.4536111 12.0736154,13.4429744 C12.0826154,13.4396453 12.0915385,13.4361538 12.1005385,13.4325812 C12.145,13.4147991 12.1885385,13.3949872 12.2307692,13.3727393 C12.6859231,13.133047 13,12.6378291 13,12.0654744 C13,11.4930385 12.6859231,10.9978205 12.2307692,10.7581282 C12.1885385,10.7358803 12.145,10.7161496 12.1005385,10.6982863 C12.0915385,10.6947949 12.0826154,10.6912222 12.0736154,10.6878932 C12.0453077,10.6772564 12.0165385,10.6677564 11.9873846,10.6589872 L11.9873846,10.6589872 L11.9196154,10.6406368 L11.9196154,10.6406368 L11.8738462,10.630406 C11.8386923,10.6233419 11.8032308,10.6173333 11.7672308,10.6131111 C11.7582308,10.6121368 11.7492308,10.611406 11.7403077,10.610594 C11.6990769,10.6066966 11.6575385,10.6039359 11.6153846,10.6039359 Z"/>
</svg>
