<svg xmlns="http://www.w3.org/2000/svg" width="30" height="30" viewBox="0 0 30 30">
  <path fill="#FFF" d="M23.8321044,10 C24.6420874,10 25.3001985,10.6402034 25.3001985,11.428146 L25.3001985,19.0613402 C25.3001985,19.7754133 24.6420874,20.4402399 23.8321044,20.4402399 L6.46809416,20.4402399 C5.65811117,20.4402399 5,19.8000365 5,19.0120938 L5,18.0025423 C5,17.608571 5.30374362,17.2638461 5.73404708,17.2145997 C6.77183778,17.0914837 7.55650879,16.2296714 7.55650879,15.2201199 C7.55650879,14.2105684 6.77183778,13.3487562 5.73404708,13.2256401 C5.32905559,13.1763937 5,12.8316688 5,12.4376975 L5,11.428146 C5,10.6402034 5.65811117,10 6.46809416,10 L23.8321044,10 Z M12.775,10.837 L6.46809416,10.837189 C6.18966251,10.837189 5.93654282,11.0587979 5.93654282,11.3542764 L5.93654282,12.2653351 C7.40463698,12.4869439 8.49305162,13.7181043 8.49305162,15.1708735 C8.49305162,16.6236427 7.40463698,17.8548031 5.93654282,18.076412 L5.93654282,18.9874706 C5.93654282,19.2583259 6.16435054,19.504558 6.46809416,19.504558 L12.7950223,19.5052471 C12.7823314,19.4769061 12.7755956,19.4453055 12.7755956,19.4110587 L12.7755956,18.7462321 C12.7755956,18.5984928 12.9009502,18.5 13.0889821,18.5 C13.277014,18.5 13.4023686,18.5984928 13.4023686,18.7462321 L13.4023686,19.4110587 C13.4023686,19.4453055 13.3956328,19.4769061 13.3829419,19.5052471 L23.8321044,19.504558 C24.110536,19.504558 24.3636557,19.2829491 24.3636557,18.9874706 L24.3636557,11.3542764 C24.3636557,11.0834211 24.135848,10.837189 23.8321044,10.837189 L13.402,10.837 L13.4023686,11.2065372 C13.4023686,11.3542764 13.277014,11.4527692 13.0889821,11.4527692 C12.9009502,11.4527692 12.7755956,11.3542764 12.7755956,11.2065372 L12.775,10.837 Z M19.1493902,12.2653351 C19.326574,12.2653351 19.4784458,12.3638279 19.5290698,12.5361903 L20.0353091,14.0135828 L21.6299631,14.038206 C21.8071469,14.038206 21.9590187,14.161322 22.0096427,14.3090613 C22.0602666,14.4568005 22.0096427,14.6537862 21.8577708,14.752279 L20.5668605,15.6879609 L21.0477879,17.1653533 C21.0984118,17.3377157 21.0477879,17.5100782 20.8959161,17.608571 C20.7440442,17.7070639 20.5668605,17.7070639 20.4149887,17.608571 L19.0987663,16.6975124 L17.782544,17.608571 C17.8078559,17.6578174 17.73192,17.6824406 17.6306721,17.6824406 C17.5547362,17.6824406 17.4534884,17.6578174 17.4028644,17.608571 C17.2509926,17.5100782 17.2003687,17.3377157 17.2509926,17.1653533 L17.73192,15.6879609 L16.4410096,14.752279 C16.2891378,14.6537862 16.2385139,14.4814237 16.2891378,14.3090613 C16.3397618,14.1366988 16.4916336,14.038206 16.6688174,14.038206 L18.2634714,14.0135828 L18.7697107,12.5361903 C18.8203347,12.3638279 18.9722065,12.2653351 19.1493902,12.2653351 Z M13.0871923,15.5 C13.2761923,15.5 13.4021923,15.5987654 13.4021923,15.7469136 L13.4021923,17.2530864 C13.4021923,17.3765432 13.2761923,17.5 13.0871923,17.5 C12.8981923,17.5 12.7721923,17.4012346 12.7721923,17.2530864 L12.7721923,15.7469136 C12.7721923,15.5987654 12.8981923,15.5 13.0871923,15.5 Z M13.0871923,12.5 C13.2761923,12.5 13.4021923,12.5987654 13.4021923,12.7469136 L13.4021923,14.2530864 C13.4021923,14.4012346 13.2761923,14.5 13.0871923,14.5 C12.8981923,14.5 12.7721923,14.4012346 12.7721923,14.2530864 L12.7721923,12.7469136 C12.7721923,12.5987654 12.8981923,12.5 13.0871923,12.5 Z"/>
</svg>
