<svg height="67" viewBox="0 0 113 67" width="113" xmlns="http://www.w3.org/2000/svg"><g fill="none" fill-rule="evenodd"><path d="m111.764538 1-31.2840005 17.144h12.528c-6.471 13.862-5.127 30.106 3.517 42.71-3.73-22.364 5.4050005-44.018 15.2390005-59.854" fill="#ed3124"/><g transform="translate(.648238 58.9628)"><g fill="#00468a"><path d="m4.4302 7.035h1.018v-4.929h-1.018zm-.132-6.402c0-.341.273-.633.646-.633.363 0 .645.292.645.633 0 .344-.282.636-.645.636-.373 0-.646-.292-.646-.636z"/><path d="m6.4981 2.106h1.008v.515c.302-.354.706-.596 1.24-.596.141 0 .302.031.413.06v.917c-.121-.029-.292-.069-.514-.069-.554 0-.867.191-1.129.413v3.689h-1.018z"/><path d="m9.5127 6.8433v-.807c.323.143.897.292 1.361.292.645 0 .957-.211.957-.665 0-.413-.312-.523-.917-.735-.726-.212-1.391-.595-1.391-1.481 0-.979.716-1.422 1.764-1.422.514 0 .998.111 1.24.212v.817c-.262-.111-.716-.242-1.2-.242-.564 0-.836.201-.836.564s.252.503.887.705c.685.222 1.451.544 1.451 1.523 0 .946-.726 1.511-1.804 1.511-.584 0-1.159-.111-1.512-.272"/><path d="m13.7041 5.7047v-2.854h-.675v-.744h.685l.182-1.311h.826v1.311h1.129v.744h-1.129v2.703c0 .514.181.735.635.735.252 0 .474-.06.625-.12v.806c-.181.06-.474.141-.857.141-.937 0-1.421-.383-1.421-1.411"/><path d="m22.2613 4.7164-.605-1.814c-.141-.423-.312-.938-.382-1.239h-.021c-.08.301-.252.816-.393 1.239l-.635 1.814zm-1.562-3.961h1.21l2.257 6.279h-1.149l-.484-1.461h-2.59l-.504 1.461h-1.068z"/><path d="m27.8775 4.5757c0-.978-.302-1.713-1.25-1.713-.343 0-.675.121-.877.292v3.044c.212.07.504.11.776.11.947 0 1.351-.745 1.351-1.733m-3.145 2.207v-6.603h1.018v2.309c.182-.201.605-.463 1.19-.463 1.431 0 2.015 1.117 2.015 2.499 0 1.422-.856 2.591-2.449 2.591-.665 0-1.32-.151-1.774-.333"/><path d="m29.6524 5.3716v-3.266h1.008v3.105c0 .685.211 1.089.947 1.089.394 0 .756-.183.998-.344v-3.85h1.018v4.929h-1.007v-.392c-.243.19-.716.473-1.361.473-1.199 0-1.603-.746-1.603-1.744"/><path d="m38.792 6.1685c1.643 0 2.046-1.059 2.046-2.269s-.382-2.297-1.985-2.297h-.857v4.566zm-1.844-5.412h2.026c2.157 0 2.973 1.511 2.973 3.143 0 1.542-.786 3.135-3.004 3.135h-1.995z"/><path d="m42.855.1812h.998v2.318c.252-.191.716-.474 1.361-.474 1.199 0 1.613.746 1.613 1.744v3.266h-1.018v-3.105c0-.686-.202-1.088-.938-1.088-.403 0-.766.181-.998.343v3.85h-1.018z"/><path d="m50.1456 6.0172v-1.148c-.071 0-.252-.012-.383-.012-.837 0-1.29.233-1.29.787 0 .454.302.705.806.705.373 0 .685-.149.867-.332m.131.544c-.222.283-.705.555-1.29.555-.927 0-1.542-.525-1.542-1.392 0-1.018.857-1.512 2.218-1.512.16 0 .352.011.483.021v-.393c0-.706-.282-.998-1.008-.998-.514 0-.947.152-1.24.282v-.827c.343-.141.847-.272 1.421-.272 1.16 0 1.845.494 1.845 1.643v2.238c0 .312.141.413.363.413.051 0 .121-.01.182-.02v.706c-.121.051-.283.111-.575.111-.434 0-.726-.212-.857-.555"/><path d="m55.3951 4.5757c0-.978-.303-1.713-1.25-1.713-.343 0-.675.121-.877.292v3.044c.212.07.504.11.776.11.947 0 1.351-.745 1.351-1.733m-3.145 2.207v-6.603h1.018v2.309c.182-.201.605-.463 1.189-.463 1.432 0 2.016 1.117 2.016 2.499 0 1.422-.856 2.591-2.449 2.591-.665 0-1.32-.151-1.774-.333"/><path d="m57.2172 7.035h1.018v-4.929h-1.018zm-.131-6.402c0-.341.272-.633.645-.633.363 0 .645.292.645.633 0 .344-.282.636-.645.636-.373 0-.645-.292-.645-.636z"/><path d="m63.92 6.1988c.746 0 1.139-.353 1.139-1.008 0-.676-.363-1.05-1.119-1.05h-1.038v2.058zm-.03-2.813c.726 0 1.058-.333 1.058-.927 0-.514-.322-.867-1.048-.867h-.998v1.794zm-2.036-2.63h2.157c1.3 0 1.985.634 1.985 1.591 0 .747-.484 1.241-1.018 1.383v.02c.685.14 1.22.634 1.22 1.47 0 1.1-.806 1.816-2.127 1.816h-2.217z"/><path d="m69.4854 6.0172v-1.148c-.071 0-.252-.012-.383-.012-.837 0-1.29.233-1.29.787 0 .454.302.705.806.705.373 0 .686-.149.867-.332m.131.544c-.222.283-.705.555-1.29.555-.927 0-1.543-.525-1.543-1.392 0-1.018.858-1.512 2.219-1.512.16 0 .352.011.483.021v-.393c0-.706-.282-.998-1.008-.998-.514 0-.947.152-1.24.282v-.827c.343-.141.847-.272 1.421-.272 1.16 0 1.845.494 1.845 1.643v2.238c0 .312.141.413.363.413.051 0 .121-.01.182-.02v.706c-.121.051-.283.111-.575.111-.434 0-.726-.212-.857-.555"/><path d="m71.6114 2.106h.998v.393c.252-.191.716-.474 1.361-.474 1.199 0 1.612.746 1.612 1.744v3.266h-1.017v-3.105c0-.685-.202-1.089-.938-1.089-.403 0-.766.182-.998.344v3.85h-1.018z"/><path d="m78.9937 6.3902-1.401-1.844v2.489h-1.018v-6.854h1.018v4.082l1.743-2.157h1.12l-1.845 2.217 1.291 1.653c.16.212.291.303.513.303.02 0 .041 0 .121-.01v.766c-.101.03-.211.04-.302.04-.484 0-.837-.141-1.24-.685"/></g><path d="m.0222.7554v6.28h3.6068v-6.28z"/><path d="m0 .7554h3.629v.867h-2.581v1.723h2.308v.817h-2.308v2.873h-1.048z" fill="#00468a"/></g><g transform="translate(.648238 18.1445)"><path d="m55.4356 0h13.384c7.626 0 11.747 3.614 11.747 8.98 0 4.349-2.653 7.004-5.534 7.794v.113c3.785.848 6.609 3.501 6.609 8.077 0 6.438-4.858 10.223-12.483 10.223h-13.723zm12.368 14.346c3.502 0 4.97-1.582 4.97-4.293 0-2.428-1.524-4.01-4.913-4.01h-4.687v8.303zm.169 14.797c3.446 0 5.309-1.581 5.309-4.687 0-3.164-1.751-4.802-5.251-4.802h-4.857v9.489z" fill="#00468a"/><path d="m31.3809 0h8.641l12.877 35.187h-8.415l-2.259-7.004h-13.724l-2.373 7.004h-7.963zm8.811 21.971-2.937-9.038c-.678-2.089-1.355-4.123-1.751-5.76h-.113c-.451 1.581-1.13 3.728-1.808 5.76l-3.049 9.038z" fill="#00468a"/><path d="m.0222 0v35.187h21.5518v-35.187z"/><path d="m0 0h21.574v6.382h-13.836v8.189h12.312v5.874h-12.312v14.742h-7.738z" fill="#00468a"/></g><g transform="translate(.648438 1.1501)"><g fill="#00468a"><path d="m8.391 8.2888h-1.101c-.305 0-.565-.108-.781-.324s-.324-.475-.324-.777v-.684c0-.304.108-.564.324-.777.216-.216.476-.324.781-.324.302 0 .561.108.777.324.216.213.324.473.324.777zm-1.101-3.854c-.571 0-1.06.203-1.465.609-.406.402-.608.889-.608 1.46v.684c0 .571.202 1.059.608 1.465.405.403.894.604 1.465.604h1.101c-.015.254-.117.472-.306.653-.19.18-.412.27-.666.27h-1.093c-.08 0-.119.042-.119.125v.723c0 .083.039.125.119.125h1.093c.526 0 .981-.193 1.362-.578.386-.381.578-.836.578-1.363v-2.708c0-.571-.201-1.058-.604-1.46-.406-.406-.894-.609-1.465-.609z"/><path d="m14.8729 2.3884h-.728c-.08 0-.12.04-.12.12v5.057c0 .261-.056.447-.169.559-.112.107-.299.161-.559.164h-2.855c-.074 0-.111.042-.111.125v.723c0 .08.04.12.12.12h2.846c.53 0 .946-.151 1.247-.453.302-.299.453-.713.453-1.243v-5.052c0-.08-.041-.12-.124-.12"/><path d="m11.8407 3.1165c-.08 0-.12.04-.12.12v4.48c0 .08.04.119.12.119h.728c.083 0 .124-.039.124-.119v-4.48c0-.08-.041-.12-.124-.12z"/><path d="m11.3211 2.5662h1.776c.065 0 .097-.033.097-.098v-.288c0-.065-.032-.098-.097-.098h-1.021v-.541c0-.086.031-.159.093-.218.059-.059.132-.089.218-.089.136 0 .229.062.279.187l.058.133c.012.023.028.041.048.053.015.006.029.009.041.009.015 0 .028-.003.04-.009l.266-.116c.042-.02.062-.047.062-.079 0-.015-.003-.03-.009-.045l-.057-.133c-.137-.325-.379-.488-.728-.488-.22 0-.407.078-.565.235-.153.154-.23.341-.23.56v.541h-.271c-.065 0-.098.033-.098.098v.288c0 .065.033.098.098.098"/><path d="m16.8177 2.3884h-.723c-.083 0-.125.042-.125.124v6.624c0 .08.042.12.125.12h.723c.08 0 .12-.04.12-.12v-6.624c0-.082-.04-.124-.12-.124"/><path d="m24.1737 11.3211h-.666c-.083 0-.124.04-.124.12v.706c0 .083.041.124.124.124h.666c.08 0 .12-.041.12-.124v-.706c0-.08-.04-.12-.12-.12"/><path d="m22.7176 11.3211h-.666c-.08 0-.12.04-.12.12v.706c0 .083.04.124.12.124h.666c.08 0 .12-.041.12-.124v-.706c0-.08-.04-.12-.12-.12"/><path d="m36.5829 10.1092h-.671c-.079 0-.12.04-.12.12v.705c0 .083.041.125.12.125h.671c.08 0 .12-.042.12-.125v-.705c0-.08-.04-.12-.12-.12"/><path d="m43.0135 7.5564c0 .263-.057.45-.169.56-.109.112-.296.169-.559.172h-2.664v-1.558c.296-.337.692-.643 1.187-.917.496-.273.883-.411 1.162-.411.408 0 .699.167.874.498.112.213.169.473.169.781zm-1.043-3.126c-.645 0-1.428.355-2.349 1.066v-2.983c0-.084-.042-.125-.124-.125h-.728c-.08 0-.12.041-.12.125v5.775h-.788-.311-.36c-.216 0-.358-.031-.426-.093-.02-.03-.031-.071-.031-.124v-3.334c0-.08-.041-.12-.124-.12h-.728c-.077 0-.116.04-.116.12v3.214c0 .127-.025.216-.075.267-.051.047-.133.07-.249.07h-1.265-5.328-.861v-2.192c0-.46-.163-.851-.488-1.177-.323-.326-.715-.489-1.177-.489-.459 0-.849.163-1.172.489-.325.326-.489.717-.489 1.177v3.347h-2.685c-.314 0-.587-.113-.817-.338-.225-.224-.338-.497-.338-.817 0-.225.059-.433.178-.626.119-.195.276-.342.475-.439l.324-.169c.05-.023.076-.055.076-.093 0-.021-.008-.043-.022-.067l-.329-.648c-.015-.029-.039-.05-.071-.062-.012-.006-.025-.009-.04-.009-.018 0-.036.006-.054.018l-.324.164c-.358.184-.645.45-.861.8-.213.352-.319.729-.319 1.131 0 .59.207 1.091.621 1.506.414.411.905.616 1.474.616h3.197c.133 0 .247-.047.342-.141.094-.095.141-.209.141-.342v-3.831c0-.193.069-.358.205-.494.136-.135.299-.204.488-.204.193 0 .356.069.493.204.136.136.204.301.204.494v2.676c0 .136.048.25.142.342.095.095.209.142.342.142h1.345 5.328 1.261c.363 0 .661-.105.892-.315.251.21.598.315 1.039.315h.182.311 4.424c.533 0 .948-.151 1.247-.453.299-.298.449-.714.449-1.247v-.875c0-.671-.185-1.214-.555-1.629-.37-.414-.856-.622-1.456-.622z"/><path d="m41.2865 3.6092h.666c.083 0 .125-.04.125-.12v-.706c0-.083-.042-.124-.125-.124h-.666c-.08 0-.12.041-.12.124v.706c0 .08.04.12.12.12"/><path d="m47.0229 4.4348c.571 0 1.059.203 1.465.609.406.402.609.889.609 1.46v1.785h5.495c.13 0 .219-.024.266-.071.051-.05.076-.139.076-.267v-3.214c0-.08.04-.119.12-.119h.728c.08 0 .12.039.12.119v3.214c0 .394-.119.712-.355.955-.24.234-.558.351-.955.351h-5.495c-.015.518-.214.964-.596 1.336-.382.373-.83.56-1.345.56h-1.097c-.08 0-.119-.042-.119-.125v-.723c0-.083.039-.125.119-.125h1.097c.252 0 .474-.09.666-.27.187-.181.287-.399.302-.653h-1.101c-.571 0-1.059-.201-1.461-.604-.405-.406-.608-.894-.608-1.465v-.684c0-.571.203-1.058.608-1.46.402-.406.89-.609 1.461-.609zm0 .968c-.302 0-.561.108-.777.324-.216.213-.324.473-.324.777v.684c0 .302.108.561.324.777s.475.324.777.324h1.101v-1.785c0-.304-.108-.564-.324-.777-.213-.216-.472-.324-.777-.324z"/><path d="m55.1463 10.1092h-.666c-.083 0-.125.04-.125.12v.705c0 .083.042.125.125.125h.666c.08 0 .12-.042.12-.125v-.705c0-.08-.04-.12-.12-.12"/><path d="m58.2411 1.323h-1.013v-.537c0-.086.03-.158.089-.218.059-.059.132-.088.218-.088.133 0 .225.061.275.186l.058.133c.017.042.044.062.08.062.015 0 .029-.003.044-.009l.271-.111c.023-.008.04-.027.049-.057.006-.012.009-.024.009-.036s-.003-.023-.009-.035l-.053-.133c-.137-.32-.378-.48-.724-.48-.219 0-.406.077-.559.231-.155.154-.231.339-.231.555v.537h-.271c-.065 0-.098.033-.098.098v.288c0 .066.033.098.098.098h1.767c.062 0 .093-.032.093-.098v-.288c0-.065-.031-.098-.093-.098"/><path d="m57.7171 2.3884h-.719c-.083 0-.125.04-.125.12v6.628c0 .08.042.12.125.12h.719c.08 0 .12-.04.12-.12v-6.628c0-.08-.04-.12-.12-.12"/><path d="m63.4207 5.9002h1.776c.062 0 .093-.033.093-.098v-.292c0-.066-.031-.098-.093-.098h-1.017v-.537c0-.086.03-.161.089-.222.06-.06.132-.089.218-.089.139 0 .232.062.279.186l.058.138c.018.038.046.057.084.057.015 0 .032-.002.049-.008l.267-.112c.017-.009.034-.026.049-.052.003-.012.004-.024.004-.036 0-.015-.001-.029-.004-.04l-.059-.133c-.135-.323-.378-.484-.727-.484-.22 0-.406.077-.56.231-.154.156-.23.345-.23.564v.537h-.276c-.065 0-.098.032-.098.098v.292c0 .065.033.098.098.098"/><path d="m76.1537 3.6092h.671c.079 0 .12-.04.12-.12v-.706c0-.08-.041-.12-.12-.12h-.671c-.08 0-.12.04-.12.12v.706c0 .08.04.12.12.12"/><path d="m80.4159 4.617h-.728c-.08 0-.12.04-.12.12v3.214c0 .127-.025.216-.075.267-.048.047-.136.07-.267.07h-1.123-.31-.383c-.207 0-.34-.032-.399-.097-.027-.024-.04-.065-.04-.124v-3.335c0-.082-.04-.124-.12-.124h-.728c-.08 0-.12.042-.12.124v3.211c0 .132-.024.221-.071.266-.05.05-.133.077-.249.079h-7.298-.311-.382c-.21 0-.344-.032-.404-.097-.023-.018-.035-.059-.035-.124v-5.559c0-.08-.04-.12-.12-.12h-.728c-.083 0-.125.04-.125.12v5.435c0 .135-.023.226-.07.27-.051.051-.135.075-.254.075h-3.067c-.317-.002-.588-.115-.813-.337-.225-.227-.337-.5-.337-.817 0-.222.059-.431.177-.626.119-.192.277-.339.475-.439l.325-.169c.047-.024.071-.055.071-.093 0-.021-.006-.043-.018-.067l-.329-.648c-.018-.032-.041-.053-.071-.062-.012-.006-.025-.009-.04-.009-.018 0-.035.006-.053.018l-.329.164c-.358.184-.643.45-.857.799-.212.35-.319.727-.319 1.132 0 .59.207 1.091.621 1.505.415.412.913.617 1.497.617h3.054c.37 0 .672-.106.906-.319.251.213.599.319 1.043.319h.182.311 7.249.031c.371 0 .672-.106.906-.319.252.213.598.319 1.039.319h.183.31 1.123c.397 0 .715-.117.955-.35.237-.243.355-.561.355-.955v-3.214c0-.08-.04-.12-.12-.12"/></g><path d="m.022 10.8594v-8.471h4.222v8.471z"/><path d="m4.12 2.3884h-.724c-.082 0-.124.04-.124.12v6.229c0 .319-.113.592-.338.817-.225.224-.495.337-.812.337s-.588-.113-.812-.337c-.228-.225-.342-.498-.342-.817v-2.295c0-.083-.039-.125-.115-.125h-.728c-.084 0-.125.042-.125.125v2.295c0 .586.207 1.086.622 1.5.414.415.914.622 1.5.622.583 0 1.084-.207 1.501-.622.414-.414.621-.914.621-1.5v-6.229c0-.08-.041-.12-.124-.12" fill="#00468a"/><path d="m79.7811 10.1092h-.666c-.083 0-.125.04-.125.12v.705c0 .083.042.125.125.125h.666c.08 0 .12-.042.12-.125v-.705c0-.08-.04-.12-.12-.12" fill="#00468a"/></g></g></svg>