<svg xmlns="http://www.w3.org/2000/svg" width="30" height="30" viewBox="0 0 30 30">
  <path fill="#0C2340" d="M17.9923038,10.3444662 C18.4515921,9.88517793 19.1962455,9.88517793 19.6555338,10.3444662 C20.1148221,10.8037545 20.1148221,11.5484079 19.6555338,12.0076962 L16.66323,15 L19.6555338,17.9923038 C20.1148221,18.4515921 20.1148221,19.1962455 19.6555338,19.6555338 C19.1962455,20.1148221 18.4515921,20.1148221 17.9923038,19.6555338 L15,16.66323 L12.0076962,19.6555338 C11.5484079,20.1148221 10.8037545,20.1148221 10.3444662,19.6555338 C9.88517793,19.1962455 9.88517793,18.4515921 10.3444662,17.9923038 L13.33677,15 L10.3444662,12.0076962 C9.88517793,11.5484079 9.88517793,10.8037545 10.3444662,10.3444662 C10.8037545,9.88517793 11.5484079,9.88517793 12.0076962,10.3444662 L15,13.33677 L17.9923038,10.3444662 Z"/>
</svg>
