<svg xmlns="http://www.w3.org/2000/svg" width="30" height="30" viewBox="0 0 30 30">
  <g fill="#0C2340" transform="translate(7 5)">
    <path d="M15.201245,7.90593103 L11.8828818,7.90593103 C11.4517579,7.90593103 11.0990202,8.25765517 11.0990202,8.68754023 C11.0990202,9.11742529 11.4517579,9.46914943 11.8828818,9.46914943 L14.4042882,9.46914943 L14.4042882,18.7182069 L1.60124496,18.7182069 L1.60124496,9.46914943 L4.38395389,9.46914943 C4.81507781,9.46914943 5.16781556,9.11742529 5.16781556,8.68754023 C5.16781556,8.25765517 4.81507781,7.90593103 4.38395389,7.90593103 L0.804334294,7.90593103 C0.373210375,7.90593103 0.0335216138,8.29673563 0.0335216138,8.72662069 L0.0335216138,19.5649195 C0.0335216138,19.9948046 0.373210375,20.2813793 0.804334294,20.2813793 L15.201245,20.2813793 C15.6323689,20.2813793 15.9720576,19.9948046 15.9720576,19.5649195 L15.9720576,8.72662069 C15.9720576,8.29673563 15.6323689,7.90593103 15.201245,7.90593103 Z"/>
    <path d="M7.87213833,13.768 C8.30326225,13.768 8.656,13.4162759 8.656,12.9863908 L8.656,2.39558621 L12.0004611,5.36570115 C12.1441844,5.49595402 12.3401499,5.56110345 12.5230202,5.56110345 C12.7451297,5.56110345 12.9541441,5.46993103 13.1109164,5.30055172 C13.398317,4.97489655 13.372219,4.47986207 13.0455793,4.19328736 L8.53837464,0.194068966 C8.25097406,-0.0534252874 7.83289914,-0.0664827586 7.53240346,0.168 C7.38868012,0.233149425 7.27110086,0.350390805 7.1927147,0.480643678 L3.28645533,4.21935632 C2.97291066,4.51898851 2.95986167,5.01397701 3.26031124,5.32662069 C3.56080692,5.63926437 4.0572219,5.65227586 4.37076657,5.35268966 L7.1927147,2.39558621 L7.08813833,12.9863908 C7.08827666,13.4162759 7.44101441,13.768 7.87213833,13.768 Z"/>
  </g>
</svg>
