<svg xmlns="http://www.w3.org/2000/svg" width="30" height="30" viewBox="0 0 30 30">
  <path fill="#0C2340" d="M15,4 C19.6925445,4 23.5,7.74357824 23.5,12.365785 C23.5,15.4179608 20.7923873,20.2017084 15.3871734,26.8163807 C15.1871128,27.0612064 14.8128872,27.0612064 14.6128266,26.8163807 C9.20761271,20.2017084 6.5,15.4179608 6.5,12.365785 C6.5,7.74357824 10.3074555,4 15,4 Z M15,5 C10.8559885,5 7.5,8.29968552 7.5,12.365785 C7.5,15.0377565 9.99690537,19.5155975 15,25.7071757 C20.0030946,19.5155975 22.5,15.0377565 22.5,12.365785 C22.5,8.29968552 19.1440115,5 15,5 Z M15,9 C16.9329966,9 18.5,10.5670034 18.5,12.5 C18.5,14.4329966 16.9329966,16 15,16 C13.0670034,16 11.5,14.4329966 11.5,12.5 C11.5,10.5670034 13.0670034,9 15,9 Z M15,10 C13.6192881,10 12.5,11.1192881 12.5,12.5 C12.5,13.8807119 13.6192881,15 15,15 C16.3807119,15 17.5,13.8807119 17.5,12.5 C17.5,11.1192881 16.3807119,10 15,10 Z"/>
</svg>
