<svg xmlns="http://www.w3.org/2000/svg" width="30" height="30" viewBox="0 0 30 30">
  <path fill="#B8B8B8" d="M18.0213901,16.8429248 C18.2217918,16.6212118 18.5731974,16.5960133 18.8062765,16.7866425 C19.0393556,16.9772717 19.0658458,17.3115411 18.8654441,17.5332541 L18.8654441,17.5332541 L15.8984807,20.8157326 C15.6752489,21.0627034 15.2727471,21.0611911 15.0515734,20.8125504 L15.0515734,20.8125504 L12.1317046,17.5300719 C11.9331505,17.3068599 11.9624159,16.9728 12.1970709,16.7839283 C12.4317258,16.5950566 12.7829112,16.6228949 12.9814654,16.8461069 L12.9814654,16.8461069 L15.4798414,19.6547488 Z M15.8984807,10.1842674 L18.8654441,13.4667459 C19.0658458,13.6884589 19.0393556,14.0227283 18.8062765,14.2133575 C18.5731974,14.4039867 18.2217918,14.3787882 18.0213901,14.1570752 L15.4798414,11.3452512 L12.9814654,14.1538931 C12.7829112,14.3771051 12.4317258,14.4049434 12.1970709,14.2160717 C11.9624159,14.0272 11.9331505,13.6931401 12.1317046,13.4699281 L15.0515734,10.1874496 C15.2727471,9.93880891 15.6752489,9.93729656 15.8984807,10.1842674 Z"/>
</svg>
