<svg xmlns="http://www.w3.org/2000/svg" width="30" height="30" viewBox="0 0 30 30">
  <path fill="#B8B8B8" d="M25,11.0294118 C25,10.8282353 24.8882353,10.6270588 24.6870588,10.5376471 L15.7458824,6.06705882 C15.5894118,5.97764706 15.4105882,5.97764706 15.2541176,6.06705882 L6.31294118,10.5376471 C6.11176471,10.6270588 6,10.8282353 6,11.0294118 C6,11.2305882 6.11176471,11.4317647 6.31294118,11.5211765 L9.77764706,13.2647059 L6.31294118,15.0082353 C6.11176471,15.0976471 6,15.2988235 6,15.5 C6,15.7011765 6.11176471,15.9023529 6.31294118,15.9917647 L9.77764706,17.7352941 L6.31294118,19.4788235 C6.11176471,19.5682353 6,19.7694118 6,19.9705882 C6,20.1717647 6.11176471,20.3729412 6.31294118,20.4623529 L15.2541176,24.9329412 C15.3435294,24.9776471 15.4105882,25 15.5,25 C15.5894118,25 15.6788235,24.9776471 15.7458824,24.9329412 L24.6870588,20.4623529 C24.8658824,20.3729412 25,20.1717647 25,19.9705882 C25,19.7694118 24.8882353,19.5682353 24.6870588,19.4788235 L21.2223529,17.7352941 L24.6870588,15.9917647 C24.8658824,15.9023529 25,15.7011765 25,15.5 C25,15.2988235 24.8882353,15.0976471 24.6870588,15.0082353 L21.2223529,13.2647059 L24.6870588,11.5211765 C24.8882353,11.4317647 25,11.2305882 25,11.0294118 Z M23.1894118,19.9705882 L15.5,23.8152941 L7.81058824,19.9705882 L11.0294118,18.3611765 L15.2541176,20.4623529 C15.3435294,20.5070588 15.4105882,20.5294118 15.5,20.5294118 C15.5894118,20.5294118 15.6788235,20.5070588 15.7458824,20.4623529 L19.9705882,18.3611765 L23.1894118,19.9705882 Z M23.1894118,15.5 L15.5,19.3447059 L7.81058824,15.5 L11.0294118,13.8905882 L15.2541176,15.9917647 C15.3435294,16.0364706 15.4105882,16.0588235 15.5,16.0588235 C15.5894118,16.0588235 15.6788235,16.0364706 15.7458824,15.9917647 L19.9705882,13.8905882 L23.1894118,15.5 Z M15.5,14.8741176 L7.81058824,11.0294118 L15.5,7.18470588 L23.1894118,11.0294118 L15.5,14.8741176 Z"/>
</svg>
