<svg xmlns="http://www.w3.org/2000/svg" width="30" height="30" viewBox="0 0 30 30">
  <g fill="none" fill-rule="evenodd">
    <path fill="#B8B8B8" fill-rule="nonzero" d="M10.5,21 C16.2989899,21 21,16.2989899 21,10.5 C21,4.70101013 16.2989899,0 10.5,0 C4.70101013,0 0,4.70101013 0,10.5 C0,16.2989899 4.70101013,21 10.5,21 Z M10.5,18 C6.35786438,18 3,14.6421356 3,10.5 C3,6.35786438 6.35786438,3 10.5,3 C14.6421356,3 18,6.35786438 18,10.5 C18,14.6421356 14.6421356,18 10.5,18 Z" opacity=".3" transform="translate(4.5 4.5)"/>
    <path fill="#B8B8B8" fill-rule="nonzero" d="M15,23.5 C19.6944204,23.5 23.5,19.6944204 23.5,15 C23.5,10.3055796 19.6944204,6.5 15,6.5 C10.3055796,6.5 6.5,10.3055796 6.5,15 C6.5,19.6944204 10.3055796,23.5 15,23.5 Z M15,22.5 C10.8578644,22.5 7.5,19.1421356 7.5,15 C7.5,10.8578644 10.8578644,7.5 15,7.5 C19.1421356,7.5 22.5,10.8578644 22.5,15 C22.5,19.1421356 19.1421356,22.5 15,22.5 Z"/>
    <path fill="#B8B8B8" fill-rule="nonzero" d="M14.9937888,20 C14.447205,20 14,19.5612903 14,19.0064516 C14,18.4387097 14.447205,18 14.9937888,18 C15.552795,18 16,18.4387097 16,19.0064516 C16,19.5612903 15.552795,20 14.9937888,20 Z M14.2666667,17 L14,10 L16,10 L15.7185185,17 L14.2666667,17 Z"/>
  </g>
</svg>
