<svg xmlns="http://www.w3.org/2000/svg" width="30" height="30" viewBox="0 0 30 30">
  <path fill="#FFF" d="M18.9797283,8.03023589 C20.6411326,8.03023589 21.9927717,9.37331048 21.9927717,11.0241875 L21.9927717,11.0241875 L21.9927717,19.9818488 C21.9927717,21.6327258 20.6411326,22.9758004 18.9797283,22.9758004 L18.9797283,22.9758004 L15.1784543,22.9758004 C14.7588804,22.9758004 14.4175543,22.6366371 14.4175543,22.219752 C14.4175543,21.8028669 14.7588804,21.4637036 15.1784543,21.4637036 L15.1784543,21.4637036 L18.9797283,21.4637036 C19.8020457,21.4637036 20.4710326,20.7989556 20.4710326,19.9818488 L20.4710326,19.9818488 L20.4710326,11.0241875 C20.4710326,10.2070806 19.8020457,9.54233266 18.9797283,9.54233266 L18.9797283,9.54233266 L15.2393239,9.54233266 C14.81975,9.54233266 14.4784239,9.20316935 14.4784239,8.78628427 C14.4784239,8.36939919 14.81975,8.03023589 15.2393239,8.03023589 L15.2393239,8.03023589 Z M10.3740761,12.1461633 C10.5725717,12.1461633 10.7681457,12.2273629 10.9106717,12.3689556 C11.2074109,12.6638448 11.2074109,13.1436028 10.9107022,13.4384617 L10.9107022,13.4384617 L9.59689348,14.7439456 L17.0879891,14.7439456 C17.5075326,14.7439456 17.8488587,15.0831089 17.8488587,15.499994 C17.8488587,15.916879 17.5075326,16.2560423 17.0879891,16.2560423 L17.0879891,16.2560423 L9.59689348,16.2560423 L10.9107022,17.5615262 C11.0548109,17.7047218 11.1341848,17.8946411 11.1341848,18.0962641 C11.1341848,18.2978871 11.0548109,18.4877762 10.9107022,18.6309718 C10.7665935,18.7741976 10.575463,18.8530685 10.3725543,18.8530685 C10.1696457,18.8530685 9.97854565,18.7741976 9.83440652,18.6309415 L9.83440652,18.6309415 L7.22401522,16.037121 C7.08048478,15.8964355 7.0009587,15.7083911 7.00000646,15.5073125 C6.9990413,15.3026653 7.0793587,15.109631 7.22617609,14.963744 L7.22617609,14.963744 L9.83550217,12.3709214 C9.97547174,12.2280282 10.1715326,12.1461633 10.3740761,12.1461633 Z"/>
</svg>
